<svg width="36" height="36" viewBox="0 0 36 36" fill="none" xmlns="http://www.w3.org/2000/svg">
<g clip-path="url(#clip0_225_1173)">
<rect width="36" height="36" rx="4" fill="#0B2D50"/>
<path d="M15.7236 -28.125C15.7953 -28.1011 15.8192 -28.0294 15.7953 -27.9099L15.5085 -27.4796V-27.0493L15.365 -26.9059C15.4128 -26.6669 15.365 -26.5235 15.2216 -26.4757V-26.0454L15.0782 -25.902V-25.4717L14.9348 -25.3283C14.9826 -25.0893 14.9348 -24.9458 14.7914 -24.898V-24.3244L14.6479 -24.1809C14.7196 -23.8702 14.6718 -23.679 14.5045 -23.6073V-22.7467L14.3611 -22.6033V-21.0257L14.2177 -20.8823V-17.1533L14.3611 -17.0099V-16.006L14.5045 -15.8625V-14.8586L14.6479 -14.7152V-13.9981L14.7914 -13.8547V-12.9941L14.9348 -12.8507V-12.4204C15.1021 -12.3487 15.1499 -12.1575 15.0782 -11.8468L15.2216 -11.7033C15.1738 -11.4643 15.2216 -11.3209 15.365 -11.2731C15.2933 -10.9623 15.3411 -10.7711 15.5085 -10.6994V-10.1257L15.6519 -9.9823V-9.40862L15.7953 -9.2652V-8.97835L15.9387 -8.83493C15.8909 -8.5959 15.9387 -8.45248 16.0821 -8.40467V-7.97441L16.2256 -7.83099V-7.54415L16.5124 -7.11389V-6.82705L16.6558 -6.68362V-6.39678L16.7992 -6.25336C16.7514 -6.01433 16.7992 -5.87091 16.9427 -5.8231V-5.39284L17.2295 -4.96258V-4.67574L17.5164 -4.3889V-4.10205L17.8032 -3.67179V-3.38495L17.9466 -3.24153V-2.95469C18.09 -2.90688 18.1378 -2.76346 18.09 -2.52443L18.3769 -2.09417V-1.80733L18.6637 -1.37706V-1.09022L18.9506 -0.659961V-0.37312L19.2374 0.057142V0.343983L19.5242 0.630824V1.06109L19.8111 1.34793V1.63477L20.0979 2.06503V2.35187L20.2413 2.49529C20.2174 2.66262 20.2652 2.75823 20.3848 2.78213V3.06897L20.6716 3.49924V3.78608C20.815 3.83388 20.8628 3.9773 20.815 4.21634L21.1019 4.6466V4.93344C21.2453 4.98125 21.2931 5.12467 21.2453 5.3637L21.3887 5.50712V5.65054L21.6755 6.08081V6.36765C21.819 6.41545 21.8668 6.55887 21.819 6.79791L22.1058 7.22817V7.51501L22.2492 7.65843C22.2253 7.82576 22.2731 7.92137 22.3926 7.94527V8.23211L22.6795 8.66238V9.09264L22.8229 9.23606V9.5229L22.9663 9.66632V9.95316L23.1098 10.0966C23.0619 10.3356 23.1098 10.479 23.2532 10.5268V10.9571L23.3966 11.1005V11.3874C23.54 11.4352 23.5878 11.5786 23.54 11.8176L23.8269 12.2479V12.6782L23.9703 12.8216V13.2518L24.1137 13.3953V13.8255L24.2571 13.9689V14.3992L24.4005 14.5426C24.3288 14.8534 24.3766 15.0446 24.544 15.1163V15.69L24.6874 15.8334V16.4071L24.8308 16.5505V17.2676L24.9742 17.411V17.9847L25.1176 18.1281V19.4189L25.2611 19.5623V21.8571L25.4045 22.0005V24.5821L25.2611 24.7255V26.3031L25.1176 26.4465V27.3071L24.9742 27.4505V28.1676L24.8308 28.311V29.0281L24.6874 29.1715C24.7352 29.4106 24.6874 29.554 24.544 29.6018V30.032L24.4005 30.1755V30.6057L24.2571 30.7491V31.036L24.1137 31.1794V31.4662C23.9703 31.5141 23.9225 31.6575 23.9703 31.8965L23.6834 32.3268V32.757C23.54 32.8048 23.4922 32.9483 23.54 33.1873L23.3966 33.3307V33.4741L23.2532 33.6176V33.761L22.9663 34.1912V34.4781L22.8229 34.6215V34.7649L22.6795 34.9083V35.0518L22.3926 35.482V35.7689L22.1058 36.0557V36.1991L21.9624 36.3425V36.486C21.8429 36.5099 21.7951 36.6055 21.819 36.7728L21.5321 37.0596V37.2031C21.4126 37.227 21.3648 37.3226 21.3887 37.4899L21.1019 37.7768V37.9202L20.815 38.207V38.3504L20.5282 38.6373V38.7807L20.2413 39.0675V39.211L19.8111 39.6412V39.7846L19.5242 40.0715V40.2149L18.9506 40.7886V40.932L18.592 41.2906L18.5203 41.2188L18.6637 41.0754V40.932L18.9506 40.6452V40.5017L19.5242 39.7846V39.6412L19.6677 39.4978V39.3544L19.8111 39.211V39.0675C19.9306 39.0436 19.9784 38.948 19.9545 38.7807L20.2413 38.4939V38.3504L20.3848 38.207V38.0636L20.5282 37.9202V37.7768L20.815 37.3465V37.0596L20.9584 36.9162V36.7728L21.1019 36.6294V36.486L21.2453 36.3425V36.1991L21.3887 36.0557V35.9123L21.6755 35.482V35.1952C21.819 35.1474 21.8668 35.004 21.819 34.7649L22.1058 34.3347V34.0478L22.2492 33.9044V33.6176L22.3926 33.4741C22.3448 33.2351 22.3926 33.0917 22.5361 33.0439V32.6136C22.7034 32.5419 22.7512 32.3507 22.6795 32.0399L22.8229 31.8965C22.7751 31.6575 22.8229 31.5141 22.9663 31.4662V31.036L23.1098 30.8926V30.4623L23.2532 30.3189V29.6018L23.3966 29.4584C23.3249 29.1476 23.3727 28.9564 23.54 28.8847V28.311L23.6834 28.1676V26.1597L23.8269 26.0163V22.4308L23.6834 22.2873V20.5663L23.54 20.4229V19.4189L23.3966 19.2755V18.5584L23.2532 18.415V17.8413L23.1098 17.6979C23.1815 17.3871 23.1337 17.1959 22.9663 17.1242V16.5505L22.8229 16.4071V15.8334L22.6795 15.69V15.1163L22.5361 14.9729C22.5839 14.7338 22.5361 14.5904 22.3926 14.5426V14.1124L22.2492 13.9689V13.5387C22.0819 13.467 22.0341 13.2757 22.1058 12.965L21.9624 12.8216V12.5347L21.819 12.3913V12.1045L21.6755 11.961V11.6742L21.5321 11.5308V11.2439L21.3887 11.1005C21.4365 10.8615 21.3887 10.7181 21.2453 10.6703V10.24L21.1019 10.0966C21.1258 9.92926 21.078 9.83364 20.9584 9.80974V9.5229L20.6716 9.09264V8.8058C20.5282 8.75799 20.4804 8.61457 20.5282 8.37554L20.2413 7.94527V7.65843C20.0979 7.61063 20.0501 7.4672 20.0979 7.22817L19.8111 6.79791V6.51107L19.6677 6.36765C19.6916 6.20032 19.6438 6.10471 19.5242 6.08081V5.79396L19.2374 5.3637V5.07686C19.094 5.02906 19.0462 4.88563 19.094 4.6466L18.9506 4.50318C18.9745 4.33586 18.9267 4.24024 18.8071 4.21634V3.9295L18.6637 3.78608V3.64266L18.3769 3.21239V2.92555L18.2335 2.78213C18.2574 2.61481 18.2095 2.5192 18.09 2.49529V2.20845L17.8032 1.77819V1.49135C17.6598 1.44354 17.612 1.30012 17.6598 1.06109L17.3729 0.630824V0.343983L17.2295 0.200563C17.2534 0.0332386 17.2056 -0.0623751 17.0861 -0.0862786V-0.37312L16.7992 -0.803381V-1.09022C16.6558 -1.13803 16.608 -1.28145 16.6558 -1.52048L16.5124 -1.6639C16.5363 -1.83123 16.4885 -1.92684 16.369 -1.95075V-2.23759L16.0821 -2.66785V-2.95469L15.9387 -3.09811C15.9865 -3.33714 15.9387 -3.48057 15.7953 -3.52837V-3.95863L15.5085 -4.3889V-4.67574L15.365 -4.81916V-5.106L15.2216 -5.24942V-5.53626C15.0782 -5.58407 15.0304 -5.72749 15.0782 -5.96652L14.9348 -6.10994V-6.5402C14.7675 -6.61191 14.7196 -6.80314 14.7914 -7.11389L14.6479 -7.25731C14.6957 -7.49634 14.6479 -7.63976 14.5045 -7.68757V-8.11783L14.3611 -8.26125C14.4089 -8.50029 14.3611 -8.64371 14.2177 -8.69151V-9.12177L14.0743 -9.2652C14.146 -9.57594 14.0982 -9.76717 13.9308 -9.83888V-10.4126L13.7874 -10.556V-11.2731L13.644 -11.4165V-12.1336L13.5006 -12.277V-12.8507L13.3572 -12.9941V-13.9981L13.2137 -14.1415V-15.2889L13.0703 -15.4323V-19.3046L13.2137 -19.4481V-20.452L13.3572 -20.5954V-21.5994L13.5006 -21.7428C13.4528 -21.9818 13.5006 -22.1252 13.644 -22.173V-22.8901L13.7874 -23.0336C13.7396 -23.2726 13.7874 -23.416 13.9308 -23.4638V-23.8941L14.0743 -24.0375V-24.3244L14.2177 -24.4678V-24.7546L14.3611 -24.898V-25.1849L14.5045 -25.3283V-25.6151C14.6479 -25.6629 14.6957 -25.8064 14.6479 -26.0454L14.7914 -26.1888V-26.3322L14.9348 -26.4757V-26.6191L15.2216 -27.0493V-27.3362L15.365 -27.4796V-27.623C15.4846 -27.6469 15.5324 -27.7425 15.5085 -27.9099L15.7236 -28.125Z" fill="white"/>
<path d="M14.1306 -2.30957H14.274L14.6325 -1.95102V-1.66418C14.776 -1.61637 14.8238 -1.47295 14.776 -1.23392L15.0628 -0.803654V-0.516813L15.2062 -0.373392C15.1823 -0.206068 15.2301 -0.110455 15.3497 -0.0865511V0.20029L15.4931 0.343711V0.773972L15.6365 0.917393V1.20423C15.7799 1.25204 15.8277 1.39546 15.7799 1.6345L15.5648 1.84963C15.3975 1.82572 15.3018 1.87353 15.2779 1.99305H14.8477L14.7043 2.13647H14.4174L14.274 2.27989C14.035 2.23208 13.8915 2.27989 13.8437 2.42331H13.4135L13.2701 2.56673C12.9593 2.49502 12.7681 2.54283 12.6964 2.71015H12.1227H12.051C12.051 2.66234 12.051 2.54283 12.051 2.3516C11.9315 2.3277 11.8837 2.23208 11.9076 2.06476L11.549 1.70621H10.9753C10.9514 1.82572 10.8558 1.87353 10.6885 1.84963L10.3299 2.20818V2.3516L9.97138 2.71015C9.80405 2.68625 9.70844 2.73405 9.68454 2.85357H9.3977L9.18256 2.63844V2.49502L8.89572 2.06476V1.6345C8.7523 1.58669 8.7045 1.44327 8.7523 1.20423L9.11085 0.845683H9.68454L9.82796 0.702262H10.1148C10.1387 0.582745 10.2343 0.534938 10.4016 0.558842L10.9036 0.0568695V-0.660234C10.7602 -0.70804 10.7124 -0.851461 10.7602 -1.0905L11.1187 -1.44905H11.6924C11.7641 -1.61637 11.9554 -1.66418 12.2661 -1.59247L12.4095 -1.73589C12.6486 -1.68808 12.792 -1.73589 12.8398 -1.87931H13.2701L13.4135 -2.02273C13.5808 -1.99883 13.6764 -2.04663 13.7003 -2.16615H13.9872L14.1306 -2.30957Z" fill="white"/>
<path d="M16.3017 3.28369L16.6602 3.64224V3.92908L16.8037 4.0725V4.35935L16.9471 4.50277V4.78961C17.0905 4.83741 17.1383 4.98084 17.0905 5.21987L17.3773 5.65013V5.93697L17.6642 6.36723V6.65408L17.8076 6.7975V7.08434C17.951 7.13214 17.9988 7.27556 17.951 7.5146L17.7359 7.72973H17.449L17.3056 7.87315C17.0666 7.82534 16.9232 7.87315 16.8754 8.01657H16.4451L16.0148 8.30341C15.7041 8.2317 15.5129 8.27951 15.4412 8.44683H14.8675L14.7241 8.59025H14.2938L14.1504 8.73367H13.9352V8.51854L13.6484 8.08828C13.6484 7.89705 13.6484 7.77754 13.6484 7.72973H13.4333L13.2898 7.58631H12.5727L12.2859 7.87315H12.0708V8.08828L11.5688 8.59025C11.4015 8.56635 11.3059 8.61416 11.282 8.73367H10.9951L10.6366 8.37512V7.94486L10.4931 7.80144V7.5146C10.3736 7.4907 10.3258 7.39508 10.3497 7.22776C10.4692 7.20385 10.517 7.10824 10.4931 6.94092L10.8517 6.58237H11.282C11.3537 6.41504 11.5449 6.36723 11.8556 6.43894L12.1425 6.1521H12.2859L12.6445 5.79355V4.93303L12.501 4.78961L12.6445 4.64619V4.43106H12.8596L13.003 4.28764H13.7201C13.7918 4.12031 13.983 4.0725 14.2938 4.14422L14.4372 4.00079H14.7241L14.8675 3.85737H15.1543C15.2021 3.71395 15.3455 3.66615 15.5846 3.71395L15.728 3.57053H15.8714L16.3017 3.28369Z" fill="white"/>
<path d="M17.8816 9.45117H18.5987L18.8139 9.6663C18.7661 9.90534 18.8139 10.0488 18.9573 10.0966V10.5268L19.1007 10.6702C19.0529 10.9093 19.1007 11.0527 19.2441 11.1005V11.6742L19.531 12.1045V12.5347L19.6744 12.6781C19.6266 12.9172 19.6744 13.0606 19.8178 13.1084V13.6821L19.6027 13.8972H19.1724L19.029 14.0406C18.79 13.9928 18.6466 14.0406 18.5987 14.1841H18.0251L17.8816 14.3275C17.6426 14.2797 17.4992 14.3275 17.4514 14.4709H16.7343L16.5909 14.6143H15.8738C15.8498 14.7338 15.7542 14.7816 15.5869 14.7577L15.3718 14.5426C15.3957 14.3753 15.3479 14.2797 15.2284 14.2558V13.6821L15.0132 13.4669C14.8459 13.4909 14.7503 13.443 14.7264 13.3235H14.1527C14.1288 13.443 14.0332 13.4909 13.8659 13.4669L13.1488 14.1841H12.4317L12.2165 13.9689C12.2404 13.8016 12.1926 13.706 12.0731 13.6821C12.1448 13.3713 12.097 13.1801 11.9297 13.1084V12.5347L12.2882 12.1762H13.2922C13.34 12.0327 13.4834 11.9849 13.7224 12.0327C13.7463 11.9132 13.842 11.8654 14.0093 11.8893L14.5113 11.3873C14.5591 11.1483 14.5113 11.0049 14.3678 10.9571V10.3834L14.583 10.1683H15.5869L15.7303 10.0249H16.4474L16.5909 9.88143H16.8777L17.0211 9.73801H17.308L17.4514 9.59459C17.6904 9.6424 17.8338 9.59459 17.8816 9.45117Z" fill="white"/>
<path d="M19.7422 15.6187H20.3158L20.531 15.8338V16.5509L20.6744 16.6943V17.268L20.8178 17.4114V18.4154L20.9612 18.5588V20.2798V20.3515H20.7461L20.6027 20.495H19.8856L19.7422 20.6384H18.4514L18.308 20.7818H16.5869L16.3718 20.5667C16.3957 20.3993 16.3479 20.3037 16.2284 20.2798V19.8496L16.3718 19.7061L16.0132 19.3476C15.8459 19.3715 15.7503 19.3237 15.7264 19.2042H15.0093L14.1488 19.7778H13.2882L13.0731 19.5627V18.8456L12.9297 18.7022V17.9851L13.2882 17.6265H14.0053L14.1488 17.77H15.0093L15.1527 17.6265H15.4395L15.583 17.4831H15.7981V17.4114V16.264C15.7618 16.1684 15.8335 16.1445 16.0132 16.1923C16.0849 16.025 16.2762 15.9772 16.5869 16.0489L16.7303 16.1923H17.5909L17.7343 16.0489H18.4514L18.5948 15.9055H19.1685L19.3119 15.7621C19.5509 15.8099 19.6944 15.7621 19.7422 15.6187Z" fill="white"/>
<path d="M16.7192 22.2149C17.0299 22.1432 17.2211 22.191 17.2928 22.3583H17.8665L18.0099 22.5017H20.3047L20.4481 22.3583H21.1652H21.2369V22.5734L21.3803 22.7169V24.7247L21.2369 24.8682V26.8761L20.8783 27.2346H18.1534L18.0099 27.0912H17.2928L17.1494 26.9478H16.5757H16.504V26.7326L16.3606 26.5892V26.159C16.5279 26.0872 16.5757 25.896 16.504 25.5853L16.1455 25.2267C15.9781 25.2506 15.8825 25.2028 15.8586 25.0833H14.9981L14.5678 25.3701H13.8507L13.4922 25.0116V23.7208L13.6356 23.5774V23.3623H13.8507L13.9942 23.2188H14.4244L14.5678 23.3623H14.7113L15.1415 23.6491H16.002L16.1455 23.5057H16.3606V23.2905L16.504 23.1471V22.43L16.7192 22.2149Z" fill="white"/>
<path d="M16.4379 28.5259H16.7247C16.7725 28.6693 16.916 28.7171 17.155 28.6693L17.5853 28.9561H17.8721L18.0155 29.0996C18.2546 29.0518 18.398 29.0996 18.4458 29.243H20.5971L20.8122 29.4581V30.1752L20.6688 30.3186C20.7166 30.5577 20.6688 30.7011 20.5254 30.7489V31.3226L20.382 31.466V31.8963C20.2146 31.968 20.1668 32.1592 20.2385 32.4699L20.0951 32.6134V32.9002L19.8083 33.3305V33.7607L19.4497 34.1193C19.2824 34.1432 19.1868 34.0954 19.1629 33.9759H18.4458L18.3024 33.8324H17.5853L17.4418 33.689C17.2028 33.7368 17.0594 33.689 17.0116 33.5456H16.5813L16.4379 33.4022H16.1511C16.1033 33.2588 15.9598 33.211 15.7208 33.2588L15.5057 33.0436C15.5296 32.8763 15.4818 32.7807 15.3622 32.7568L15.5057 32.6134V31.6094L15.1471 31.2509H14.7169C14.6451 31.0835 14.4539 31.0357 14.1432 31.1074C14.0954 31.2509 13.9519 31.2987 13.7129 31.2509C13.689 31.1314 13.5934 31.0835 13.4261 31.1074L13.2109 30.8923V30.1752L13.3544 30.0318V29.6015L13.4978 29.4581V29.243H13.5695H14.2866L15.0037 29.8167H15.7208L15.8642 29.6732H16.0793V29.6015V28.8844L16.4379 28.5259Z" fill="white"/>
<path d="M15.1516 34.5498L15.2951 34.6932H15.4385C15.4624 34.8127 15.558 34.8605 15.7253 34.8366L16.0122 35.1235H16.1556L16.299 35.2669H16.4424L16.5858 35.4103H16.7293L17.1595 35.6972H17.5898L17.7332 35.8406H18.1635L18.3069 35.984C18.4981 35.984 18.6176 35.984 18.6654 35.984V36.0557V36.6294L18.522 36.7728V36.9162L18.2352 37.3465V37.6333L18.0918 37.7768V37.9202L17.9483 38.0636V38.207L17.8049 38.3505V38.4939L17.6615 38.6373V38.7807C17.542 38.8046 17.4942 38.9002 17.5181 39.0676L17.2312 39.3544V39.4978L17.0878 39.6412V39.7847C16.9683 39.8086 16.9205 39.9042 16.9444 40.0715L16.7293 40.2866H16.299L15.8687 39.9998H15.5819L15.4385 39.8564H15.2951L15.1516 39.7129H15.0082L14.8648 39.5695H14.7214L14.578 39.4261H14.4345L14.2911 39.2827H14.1477C14.1238 39.1632 14.0282 39.1154 13.8608 39.1393L13.5023 38.7807V38.3505L13.6457 38.207V37.9202C13.7891 37.8724 13.8369 37.729 13.7891 37.4899L13.6457 37.3465V37.1314H13.4306L13.1437 36.8445H12.4266C12.4027 36.725 12.3071 36.6772 12.1398 36.7011L11.7812 36.3426L11.9247 36.1991V35.7689C12.0681 35.7211 12.1159 35.5777 12.0681 35.3386L12.4266 34.9801H12.7135C12.7374 35.0996 12.833 35.1474 13.0003 35.1235L13.574 35.6972H14.4345L14.7931 35.3386V34.9084L15.1516 34.5498Z" fill="white"/>
</g>
<defs>
<clipPath id="clip0_225_1173">
<rect width="36" height="36" rx="4" fill="white"/>
</clipPath>
</defs>
</svg>
