<svg width="56" height="56" viewBox="0 0 56 56" fill="none" xmlns="http://www.w3.org/2000/svg">
<rect width="56" height="56" rx="4" fill="#0B2D50" fill-opacity="0.1"/>
<path d="M37.464 34.8061L44 41.3407L41.8407 43.5L35.3061 36.964C32.8748 38.9131 29.8505 39.9732 26.7344 39.9687C19.153 39.9687 13 33.8157 13 26.2344C13 18.653 19.153 12.5 26.7344 12.5C34.3157 12.5 40.4687 18.653 40.4687 26.2344C40.4732 29.3505 39.4131 32.3748 37.464 34.8061ZM34.4027 33.6738C36.3394 31.6822 37.421 29.0124 37.4167 26.2344C37.4167 20.3316 32.6356 15.5521 26.7344 15.5521C20.8316 15.5521 16.0521 20.3316 16.0521 26.2344C16.0521 32.1356 20.8316 36.9167 26.7344 36.9167C29.5124 36.921 32.1822 35.8394 34.1738 33.9027L34.4027 33.6738ZM28.532 20.3988C28.0821 20.6021 27.6881 20.9115 27.384 21.3005C27.0799 21.6895 26.8747 22.1464 26.786 22.6322C26.6973 23.1179 26.7278 23.6179 26.8749 24.0893C27.022 24.5606 27.2812 24.9893 27.6303 25.3384C27.9795 25.6876 28.4081 25.9468 28.8795 26.0938C29.3508 26.2409 29.8508 26.2714 30.3366 26.1827C30.8223 26.0941 31.2793 25.8889 31.6683 25.5847C32.0573 25.2806 32.3667 24.8867 32.57 24.4367C32.971 25.7394 32.9245 27.1388 32.4379 28.412C31.9513 29.6851 31.0526 30.7588 29.885 31.462C28.7173 32.1651 27.348 32.4572 25.995 32.2918C24.6421 32.1263 23.3835 31.5128 22.4197 30.549C21.4559 29.5853 20.8424 28.3266 20.677 26.9737C20.5115 25.6208 20.8036 24.2514 21.5068 23.0838C22.2099 21.9161 23.2836 21.0174 24.5568 20.5308C25.83 20.0442 27.2294 19.9977 28.532 20.3988Z" fill="#0B2D50"/>
</svg>
