<svg width="56" height="56" viewBox="0 0 56 56" fill="none" xmlns="http://www.w3.org/2000/svg">
<rect width="56" height="56" rx="4" fill="#0B2D50" fill-opacity="0.1"/>
<path fill-rule="evenodd" clip-rule="evenodd" d="M23.1388 40.375C18.4311 36.5095 12 30.1238 12 24.0863C12 14.5631 20.8003 10.2342 28 18.0258C35.1997 10.2342 44 14.5628 44 24.0862C44 30.124 37.569 36.5095 32.8613 40.375C30.7301 42.125 29.6645 43 28 43C26.3355 43 25.2699 42.125 23.1388 40.375ZM24.9491 26.4801C25.0923 26.2741 25.2114 26.103 25.3173 25.9565C25.4069 26.1136 25.5069 26.2966 25.6272 26.517L28.3637 31.5268C28.6293 32.0135 28.8899 32.4909 29.1515 32.8373C29.4315 33.2078 29.9237 33.7158 30.7126 33.7306C31.5014 33.7456 32.0123 33.2566 32.3059 32.8969C32.5803 32.5606 32.8584 32.0936 33.1421 31.6173L33.2307 31.4685C33.584 30.8756 33.8064 30.5049 34.0032 30.2371C34.1846 29.9904 34.2894 29.9099 34.3677 29.8654C34.4458 29.8208 34.5683 29.7718 34.8717 29.742C35.201 29.7098 35.631 29.7085 36.3178 29.7085H37.6C38.2627 29.7085 38.8 29.1675 38.8 28.5002C38.8 27.8328 38.2627 27.2918 37.6 27.2918H36.2659C35.6466 27.2918 35.0987 27.2918 34.6395 27.3368C34.1416 27.3854 33.6571 27.4932 33.1851 27.7624C32.7131 28.0315 32.372 28.3943 32.0744 28.7992C31.7998 29.1725 31.5181 29.6455 31.1994 30.1804L31.1234 30.308C30.9846 30.541 30.8688 30.7349 30.7654 30.9015C30.6682 30.7312 30.5598 30.5329 30.4298 30.2949L27.6947 25.2874C27.4482 24.8357 27.2024 24.3856 26.9533 24.0557C26.681 23.6953 26.2142 23.2187 25.4662 23.178C24.7182 23.1374 24.2032 23.5606 23.894 23.8894C23.6109 24.1904 23.3186 24.6112 23.0251 25.0335L22.5301 25.7456C22.1667 26.2684 21.9388 26.5942 21.7416 26.8291C21.56 27.0453 21.4591 27.1162 21.3846 27.1552C21.3101 27.1944 21.1946 27.2369 20.9145 27.2627C20.6103 27.2907 20.2146 27.2918 19.5808 27.2918H18.4C17.7373 27.2918 17.2 27.8328 17.2 28.5002C17.2 29.1675 17.7373 29.7085 18.4 29.7085H19.629C20.2001 29.7085 20.7064 29.7085 21.1328 29.6693C21.5953 29.6268 22.0465 29.5329 22.4929 29.2988C22.9394 29.0647 23.2746 28.7465 23.5744 28.3893C23.8508 28.06 24.1411 27.6424 24.4687 27.1712L24.9491 26.4801Z" fill="#1C274C"/>
</svg>
