<svg width="56" height="56" viewBox="0 0 56 56" fill="none" xmlns="http://www.w3.org/2000/svg">
<rect width="56" height="56" rx="4" fill="#0B2D50" fill-opacity="0.1"/>
<path d="M36.7347 28.8828C34.6088 31.1931 31.5884 32.667 28.2083 32.667C24.8283 32.667 21.8079 31.1931 19.6819 28.8828C16.1042 30.6909 14 34.251 14 39.1253V43.0003H42.4167V39.1253C42.4167 34.251 40.3125 30.6909 36.7347 28.8828Z" fill="#0B2D50"/>
<path d="M28.2135 30.0833C33.2071 30.0833 37.2552 26.0352 37.2552 21.0417C37.2552 16.0481 33.2071 12 28.2135 12C23.22 12 19.1719 16.0481 19.1719 21.0417C19.1719 26.0352 23.22 30.0833 28.2135 30.0833Z" fill="#0B2D50"/>
</svg>
