<svg width="186" height="43" viewBox="0 0 186 43" fill="none" xmlns="http://www.w3.org/2000/svg">
<path d="M11.4395 0.123253C11.4805 0.137098 11.4941 0.178633 11.4805 0.247857L11.3164 0.497066V0.746275L11.2344 0.829345C11.2617 0.967794 11.2344 1.05086 11.1523 1.07855V1.32776L11.0703 1.41083V1.66004L10.9883 1.74311C11.0156 1.88156 10.9883 1.96463 10.9062 1.99232V2.3246L10.8242 2.40767C10.8652 2.58765 10.8379 2.69841 10.7422 2.73995V3.23836L10.6602 3.32143V4.2352L10.5781 4.31827V6.47808L10.6602 6.56115V7.14264L10.7422 7.22571V7.80719L10.8242 7.89026V8.30561L10.9062 8.38868V8.8871L10.9883 8.97017V9.21938C11.084 9.26091 11.1113 9.37167 11.0703 9.55165L11.1523 9.63472C11.125 9.77317 11.1523 9.85624 11.2344 9.88393C11.1934 10.0639 11.2207 10.1747 11.3164 10.2162V10.5485L11.3984 10.6316V10.9638L11.4805 11.0469V11.213L11.5625 11.2961C11.5352 11.4346 11.5625 11.5176 11.6445 11.5453V11.7945L11.7266 11.8776V12.0437L11.8906 12.293V12.4591L11.9727 12.5422V12.7083L12.0547 12.7914C12.0273 12.9298 12.0547 13.0129 12.1367 13.0406V13.2898L12.3008 13.539V13.7051L12.4648 13.8713V14.0374L12.6289 14.2866V14.4528L12.7109 14.5358V14.702C12.793 14.7297 12.8203 14.8127 12.793 14.9512L12.957 15.2004V15.3665L13.1211 15.6157V15.7819L13.2852 16.0311V16.1972L13.4492 16.4464V16.6126L13.6133 16.7787V17.0279L13.7773 17.1941V17.3602L13.9414 17.6094V17.7755L14.0234 17.8586C14.0098 17.9555 14.0371 18.0109 14.1055 18.0248V18.1909L14.2695 18.4401V18.6062C14.3516 18.6339 14.3789 18.717 14.3516 18.8555L14.5156 19.1047V19.2708C14.5977 19.2985 14.625 19.3816 14.5977 19.52L14.6797 19.6031V19.6861L14.8438 19.9354V20.1015C14.9258 20.1292 14.9531 20.2123 14.9258 20.3507L15.0898 20.5999V20.7661L15.1719 20.8491C15.1582 20.946 15.1855 21.0014 15.2539 21.0153V21.1814L15.418 21.4306V21.6798L15.5 21.7629V21.929L15.582 22.0121V22.1782L15.6641 22.2613C15.6367 22.3998 15.6641 22.4828 15.7461 22.5105V22.7597L15.8281 22.8428V23.0089C15.9102 23.0366 15.9375 23.1197 15.9102 23.2581L16.0742 23.5074V23.7566L16.1562 23.8396V24.0888L16.2383 24.1719V24.4211L16.3203 24.5042V24.7534L16.4023 24.8365C16.3613 25.0164 16.3887 25.1272 16.4844 25.1687V25.501L16.5664 25.5841V25.9164L16.6484 25.9994V26.4148L16.7305 26.4979V26.8301L16.8125 26.9132V27.6608L16.8945 27.7439V29.073L16.9766 29.1561V30.6513L16.8945 30.7344V31.6482L16.8125 31.7312V32.2297L16.7305 32.3127V32.7281L16.6484 32.8111V33.2265L16.5664 33.3096C16.5938 33.448 16.5664 33.5311 16.4844 33.5588V33.808L16.4023 33.8911V34.1403L16.3203 34.2233V34.3895L16.2383 34.4725V34.6387C16.1562 34.6664 16.1289 34.7494 16.1562 34.8879L15.9922 35.1371V35.3863C15.9102 35.414 15.8828 35.4971 15.9102 35.6355L15.8281 35.7186V35.8017L15.7461 35.8847V35.9678L15.582 36.217V36.3831L15.5 36.4662V36.5493L15.418 36.6324V36.7154L15.2539 36.9646V37.1308L15.0898 37.2969V37.38L15.0078 37.463V37.5461C14.9395 37.56 14.9121 37.6153 14.9258 37.7123L14.7617 37.8784V37.9615C14.6934 37.9753 14.666 38.0307 14.6797 38.1276L14.5156 38.2937V38.3768L14.3516 38.543V38.626L14.1875 38.7922V38.8752L14.0234 39.0414V39.1244L13.7773 39.3736V39.4567L13.6133 39.6229V39.7059L13.2852 40.0382V40.1213L13.0801 40.3289L13.0391 40.2874L13.1211 40.2043V40.1213L13.2852 39.9551V39.8721L13.6133 39.4567V39.3736L13.6953 39.2906V39.2075L13.7773 39.1244V39.0414C13.8457 39.0275 13.873 38.9721 13.8594 38.8752L14.0234 38.7091V38.626L14.1055 38.543V38.4599L14.1875 38.3768V38.2937L14.3516 38.0445V37.8784L14.4336 37.7953V37.7123L14.5156 37.6292V37.5461L14.5977 37.463V37.38L14.6797 37.2969V37.2138L14.8438 36.9646V36.7985C14.9258 36.7708 14.9531 36.6877 14.9258 36.5493L15.0898 36.3001V36.1339L15.1719 36.0509V35.8847L15.2539 35.8017C15.2266 35.6632 15.2539 35.5801 15.3359 35.5524V35.3032C15.4316 35.2617 15.459 35.1509 15.418 34.971L15.5 34.8879C15.4727 34.7494 15.5 34.6664 15.582 34.6387V34.3895L15.6641 34.3064V34.0572L15.7461 33.9741V33.5588L15.8281 33.4757C15.7871 33.2957 15.8145 33.185 15.9102 33.1434V32.8111L15.9922 32.7281V31.5651L16.0742 31.482V29.4053L15.9922 29.3222V28.3254L15.9102 28.2423V27.6608L15.8281 27.5778V27.1624L15.7461 27.0793V26.7471L15.6641 26.664C15.7051 26.484 15.6777 26.3733 15.582 26.3317V25.9994L15.5 25.9164V25.5841L15.418 25.501V25.1687L15.3359 25.0857C15.3633 24.9472 15.3359 24.8642 15.2539 24.8365V24.5873L15.1719 24.5042V24.255C15.0762 24.2134 15.0488 24.1027 15.0898 23.9227L15.0078 23.8396V23.6735L14.9258 23.5904V23.4243L14.8438 23.3412V23.1751L14.7617 23.092V22.9259L14.6797 22.8428C14.707 22.7043 14.6797 22.6213 14.5977 22.5936V22.3444L14.5156 22.2613C14.5293 22.1644 14.502 22.109 14.4336 22.0952V21.929L14.2695 21.6798V21.5137C14.1875 21.486 14.1602 21.4029 14.1875 21.2645L14.0234 21.0153V20.8491C13.9414 20.8214 13.9141 20.7384 13.9414 20.5999L13.7773 20.3507V20.1846L13.6953 20.1015C13.709 20.0046 13.6816 19.9492 13.6133 19.9354V19.7692L13.4492 19.52V19.3539C13.3672 19.3262 13.3398 19.2431 13.3672 19.1047L13.2852 19.0216C13.2988 18.9247 13.2715 18.8693 13.2031 18.8555V18.6893L13.1211 18.6062V18.5232L12.957 18.274V18.1078L12.875 18.0248C12.8887 17.9278 12.8613 17.8725 12.793 17.8586V17.6925L12.6289 17.4433V17.2771C12.5469 17.2494 12.5195 17.1664 12.5469 17.0279L12.3828 16.7787V16.6126L12.3008 16.5295C12.3145 16.4326 12.2871 16.3772 12.2188 16.3634V16.1972L12.0547 15.948V15.7819C11.9727 15.7542 11.9453 15.6711 11.9727 15.5327L11.8906 15.4496C11.9043 15.3527 11.877 15.2973 11.8086 15.2835V15.1173L11.6445 14.8681V14.702L11.5625 14.6189C11.5898 14.4805 11.5625 14.3974 11.4805 14.3697V14.1205L11.3164 13.8713V13.7051L11.2344 13.6221V13.4559L11.1523 13.3729V13.2067C11.0703 13.179 11.043 13.096 11.0703 12.9575L10.9883 12.8744V12.6252C10.8926 12.5837 10.8652 12.4729 10.9062 12.293L10.8242 12.2099C10.8516 12.0714 10.8242 11.9884 10.7422 11.9607V11.7115L10.6602 11.6284C10.6875 11.4899 10.6602 11.4069 10.5781 11.3792V11.13L10.4961 11.0469C10.5371 10.8669 10.5098 10.7562 10.4141 10.7146V10.3824L10.332 10.2993V9.88393L10.25 9.80086V9.38552L10.168 9.30245V8.97017L10.0859 8.8871V8.30561L10.0039 8.22254V7.55798L9.92188 7.47491V5.23203L10.0039 5.14896V4.56748L10.0859 4.48441V3.90292L10.168 3.81985C10.1406 3.6814 10.168 3.59833 10.25 3.57064V3.15529L10.332 3.07222C10.3047 2.93378 10.332 2.85071 10.4141 2.82302V2.57381L10.4961 2.49074V2.3246L10.5781 2.24153V2.07539L10.6602 1.99232V1.82618L10.7422 1.74311V1.57697C10.8242 1.54928 10.8516 1.46621 10.8242 1.32776L10.9062 1.24469V1.16162L10.9883 1.07855V0.995484L11.1523 0.746275V0.580136L11.2344 0.497066V0.413997C11.3027 0.400152 11.3301 0.344772 11.3164 0.247857L11.4395 0.123253Z" fill="#BB9B62" stroke="#BB9B62" stroke-width="0.214844"/>
<path d="M13.498 1.28634H18.3379L18.4199 1.36941H19.4863L19.5684 1.45248H20.3066L20.3887 1.53555H20.7988L20.8809 1.61862H21.4551L21.5371 1.70169C21.7148 1.66015 21.8242 1.68784 21.8652 1.78476H22.2754L22.3574 1.86783C22.5352 1.82629 22.6445 1.85398 22.6855 1.9509H23.0137L23.0957 2.03397H23.3418L23.4238 2.11704H23.6699C23.7109 2.21395 23.8203 2.24164 23.998 2.2001L24.0801 2.28317C24.2168 2.25548 24.2988 2.28317 24.3262 2.36624H24.5723L24.6543 2.44931H24.8184L24.9004 2.53238H25.0645L25.1465 2.61545H25.3105L25.3926 2.69852C25.5293 2.67083 25.6113 2.69852 25.6387 2.78159H25.8027L26.0488 2.94773H26.2129L26.2949 3.0308H26.377L26.459 3.11387H26.541L26.7871 3.28001H26.9512L27.0332 3.36308H27.1152L27.1973 3.44615H27.2793L27.3613 3.52922H27.4434L27.5254 3.61229H27.6074L27.6895 3.69536H27.7715L27.8535 3.77843H27.9355L28.0176 3.8615H28.0996L28.1816 3.94457H28.2637C28.2773 4.01379 28.332 4.04148 28.4277 4.02764L28.5918 4.19378H28.6738C28.6875 4.263 28.7422 4.29069 28.8379 4.27685L29.248 4.60912H29.3301C29.3438 4.67835 29.3984 4.70604 29.4941 4.69219L29.6582 4.85833H29.7402L29.9043 5.02447H29.9863L30.2324 5.27368H30.3145L30.5605 5.52289H30.6426L30.8066 5.68903H30.8887L31.2988 6.10438H31.3809L31.9551 6.68586H32.0781V6.852H32.2012L32.9805 7.64116V7.72423L33.5547 8.30572V8.38879L33.9648 8.80414V8.88721L34.2109 9.13642V9.21949L34.375 9.38563V9.4687L34.5391 9.63484V9.71791L34.7852 9.96711V10.0502L35.1133 10.4655V10.5486L35.1953 10.6317V10.7147C35.2637 10.7286 35.291 10.784 35.2773 10.8809L35.4414 11.047V11.1301L35.5234 11.2132V11.2962L35.6055 11.3793V11.4624L35.6875 11.5454V11.6285L35.7695 11.7116V11.7946L35.8516 11.8777V11.9608L35.9336 12.0439V12.1269L36.0156 12.21V12.2931L36.1797 12.5423V12.7084L36.2617 12.7915V12.8746L36.3438 12.9576V13.0407L36.5078 13.2899V13.456L36.5898 13.5391V13.7052L36.6719 13.7883V13.9545L36.7539 14.0375V14.2037L36.918 14.4529V14.7021L37 14.7852C36.9727 14.9236 37 15.0067 37.082 15.0344V15.2836L37.1641 15.3666V15.6158L37.2461 15.6989C37.2051 15.8789 37.2324 15.9897 37.3281 16.0312V16.3635L37.4102 16.4465V16.7788L37.4922 16.8619V17.3603L37.5742 17.4434V17.7757L37.6562 17.8587V18.4402L37.7383 18.5233V19.6863L37.8203 19.7693V21.9291L37.7383 22.0122V23.0921L37.6562 23.1752V23.6736L37.5742 23.7567V24.2551L37.4922 24.3382V24.7535L37.4102 24.8366C37.4512 25.0166 37.4238 25.1273 37.3281 25.1689V25.5011L37.2461 25.5842V25.8334L37.1641 25.9165V26.1657C37.0684 26.2072 37.041 26.318 37.082 26.498L37 26.581C37.0273 26.7195 37 26.8026 36.918 26.8302V27.0795L36.8359 27.1625V27.3287L36.7539 27.4117V27.5779L36.6719 27.6609V27.8271L36.5898 27.9102V28.0763C36.5078 28.104 36.4805 28.1871 36.5078 28.3255L36.4258 28.4086V28.4916L36.3438 28.5747V28.6578L36.1797 28.907V29.0731L36.0977 29.1562V29.2393L36.0156 29.3223V29.4054L35.9336 29.4885V29.5715L35.8516 29.6546V29.7377L35.7695 29.8208V29.9038L35.6875 29.9869V30.07L35.6055 30.153V30.2361L35.5234 30.3192V30.4022L35.4414 30.4853V30.5684L35.3594 30.6515V30.7345C35.291 30.7484 35.2637 30.8037 35.2773 30.9007L35.1133 31.0668V31.1499L34.7852 31.5652V31.6483C34.7168 31.6621 34.6895 31.7175 34.7031 31.8144L34.5391 31.9806V32.0636L34.375 32.2298V32.3128L34.1289 32.5621V32.6451L33.8828 32.8943V32.9774L33.5547 33.3097V33.3927L33.0625 33.8912V33.9742L31.709 35.3449H31.627L31.1348 35.8433H31.0527L30.7246 36.1756H30.6426L30.3965 36.4248H30.3145L30.0684 36.674H29.9863L29.7402 36.9232H29.6582C29.6445 36.9924 29.5898 37.0201 29.4941 37.0063L29.3301 37.1724H29.248L28.8379 37.5047H28.7559C28.7422 37.5739 28.6875 37.6016 28.5918 37.5878L28.4277 37.7539H28.3457L28.2637 37.837H28.1816L28.0996 37.92H28.0176L27.9355 38.0031H27.8535C27.8398 38.0723 27.7852 38.1 27.6895 38.0862L27.5254 38.2523H27.3613L27.1973 38.4185H27.0332L26.9512 38.5015H26.8691L26.623 38.6677H26.459L26.377 38.7507H26.2949L26.0488 38.9169H25.8848L25.8027 38.9999H25.6387C25.6113 39.083 25.5293 39.1107 25.3926 39.083L25.1465 39.2492H24.9824L24.9004 39.3322H24.7363L24.6543 39.4153H24.4902L24.4082 39.4984C24.2715 39.4707 24.1895 39.4984 24.1621 39.5814H23.916L23.834 39.6645H23.5879L23.5059 39.7476H23.2598L23.1777 39.8306C23 39.7891 22.8906 39.8168 22.8496 39.9137H22.5215L22.4395 39.9968H22.1113L22.0293 40.0799H21.7012L21.6191 40.1629H21.0449L20.9629 40.246H20.4707L20.3887 40.3291H19.5684L19.4863 40.4121H15.5488L15.4668 40.4952C15.4121 40.3844 15.3574 40.3844 15.3027 40.4952L15.1797 40.3706L15.4258 40.1214V40.0383L15.5898 39.8722V39.7891L15.7539 39.623V39.5399L15.877 39.4153H17.9277L18.0098 39.3322H18.584L18.666 39.2492H19.2402L19.3223 39.1661H19.6504L19.7324 39.083H20.0605L20.1426 38.9999H20.3887L20.4707 38.9169H20.7168L20.7988 38.8338H21.0449C21.0859 38.7369 21.1953 38.7092 21.373 38.7507L21.4551 38.6677H21.6191L21.7012 38.5846H21.8652L21.9473 38.5015H22.1113C22.1387 38.4185 22.2207 38.3908 22.3574 38.4185L22.6035 38.2523H22.7676L23.0137 38.0862H23.1777L23.2598 38.0031H23.3418L23.4238 37.92H23.5059L23.5879 37.837H23.6699L23.752 37.7539H23.834L23.916 37.6708H23.998L24.0801 37.5878H24.1621C24.1758 37.5185 24.2305 37.4908 24.3262 37.5047L24.4902 37.3386H24.6543L24.8184 37.1724H24.9004C24.9141 37.1032 24.9688 37.0755 25.0645 37.0893L25.2285 36.9232H25.3105L25.4746 36.7571H25.5566L25.7207 36.5909H25.8027L25.9668 36.4248H26.0488L26.377 36.0925H26.459L26.7871 35.7602H26.8691L27.4434 35.1787H27.5254L27.9766 34.7219V34.6388L28.7969 33.8081V33.725L29.043 33.4758V33.3927L29.2891 33.1435V33.0605L29.5352 32.8113V32.7282L29.6992 32.5621V32.479L30.0273 32.0636V31.9806C30.0957 31.9667 30.123 31.9113 30.1094 31.8144L30.2734 31.6483V31.5652L30.3555 31.4821V31.3991L30.4375 31.316V31.2329L30.5195 31.1499V31.0668L30.6016 30.9837V30.9007L30.6836 30.8176V30.7345L30.7656 30.6515V30.5684L30.8477 30.4853V30.4022L30.9297 30.3192V30.2361L31.0938 29.9869V29.8208L31.1758 29.7377V29.6546L31.3398 29.4054V29.2393L31.5039 28.9901V28.8239L31.5859 28.7408V28.5747L31.668 28.4916V28.3255L31.75 28.2424C31.7227 28.104 31.75 28.0209 31.832 27.9932V27.744L31.9141 27.6609C31.8867 27.5225 31.9141 27.4394 31.9961 27.4117V27.1625L32.0781 27.0795V26.8302L32.1602 26.7472C32.1191 26.5672 32.1465 26.4564 32.2422 26.4149V26.0826L32.3242 25.9996C32.2832 25.8196 32.3105 25.7088 32.4062 25.6673V25.2519L32.4883 25.1689V24.7535L32.5703 24.6704V24.089L32.6523 24.0059V23.5075L32.7344 23.4244V22.0953L32.8164 22.0122V19.6863L32.7344 19.6032V18.6064L32.6523 18.5233V17.9418L32.5703 17.8587V17.2772L32.4883 17.1942V16.8619L32.4062 16.7788V16.4465L32.3242 16.3635V16.0312L32.2422 15.9481V15.6989L32.1602 15.6158V15.3666L32.0781 15.2836V15.0344C31.9824 14.9928 31.9551 14.8821 31.9961 14.7021L31.9141 14.619V14.4529L31.832 14.3698V14.2037L31.75 14.1206V13.9545L31.668 13.8714V13.7052L31.5859 13.6222V13.456C31.5039 13.4283 31.4766 13.3453 31.5039 13.2068L31.3398 12.9576V12.7915L31.2578 12.7084V12.6253L31.1758 12.5423V12.4592L31.0938 12.3761V12.2931L31.0117 12.21V12.1269L30.8477 11.8777V11.7116C30.7793 11.6977 30.752 11.6424 30.7656 11.5454L30.6016 11.3793V11.2962L30.5195 11.2132V11.1301L30.4375 11.047V10.9639C30.3691 10.9501 30.3418 10.8947 30.3555 10.7978L30.1914 10.6317V10.5486C30.123 10.5348 30.0957 10.4794 30.1094 10.3825L29.9453 10.2163V10.1333L29.7812 9.96711V9.88404L29.6172 9.71791V9.63484L29.3711 9.38563V9.30256L29.125 9.05335V8.97028L28.9609 8.80414V8.72107L28.2227 7.97344V7.89037L27.1152 6.76893H27.0332L26.541 6.27052H26.459L26.1309 5.93824H26.0488L25.8027 5.68903H25.7207L25.5566 5.52289H25.4746L25.3105 5.35675H25.2285L25.0645 5.19061H24.9824L24.5723 4.85833H24.4902L24.4082 4.77526H24.3262L24.2441 4.69219H24.1621C24.1484 4.62297 24.0937 4.59528 23.998 4.60912L23.834 4.44298H23.752L23.6699 4.35991H23.5879L23.5059 4.27685H23.4238L23.3418 4.19378H23.2598L23.1777 4.11071H23.0957L23.0137 4.02764H22.9316L22.6855 3.8615H22.5215L22.4395 3.77843C22.3438 3.79227 22.2891 3.76458 22.2754 3.69536H22.1113L21.8652 3.52922H21.7012L21.6191 3.44615H21.4551L21.373 3.36308H21.209C21.1816 3.28001 21.0996 3.25232 20.9629 3.28001L20.7168 3.11387H20.4707L20.3887 3.0308C20.252 3.05849 20.1699 3.0308 20.1426 2.94773H19.8145L19.7324 2.86466C19.5957 2.89235 19.5137 2.86466 19.4863 2.78159H19.1582L19.0762 2.69852H18.748L18.666 2.61545H18.2559L18.1738 2.53238H17.7637L17.6816 2.44931H16.9434L16.8613 2.36624H13.0879H13.0469V2.24164L13.1289 2.15857V1.99243L13.293 1.74322V1.57708C13.3613 1.56324 13.3887 1.50786 13.375 1.41094L13.498 1.28634Z" fill="#0F2646"/>
<path d="M0.123047 1.36912H6.84961C6.89062 1.35528 6.9043 1.4245 6.89062 1.5768L6.80859 1.65987V1.74294L6.72656 1.82601V1.90908L6.64453 1.99215V2.07522L6.48047 2.32442V2.49056C6.41211 2.50441 6.38477 2.55979 6.39844 2.6567L6.31641 2.73977V2.90591L6.23438 2.98898V3.15512L6.15234 3.23819V3.40433L6.07031 3.4874V3.65354L5.98828 3.73661C6.01563 3.87506 5.98828 3.95813 5.90625 3.98582V4.23503L5.82422 4.3181V4.5673L5.74219 4.65037C5.7832 4.83036 5.75586 4.94112 5.66016 4.98265V5.31493L5.57812 5.398V5.73028L5.49609 5.81335V6.31177L5.41406 6.39484V6.89325L5.33203 6.97632V7.80702L5.25 7.89009V10.5483L5.33203 10.6314V11.7113L5.41406 11.7944V12.3758L5.49609 12.4589V13.0404L5.57812 13.1235V13.5388L5.66016 13.6219V14.0372L5.74219 14.1203V14.4526L5.82422 14.5357V14.951L5.90625 15.0341C5.86523 15.2141 5.89258 15.3248 5.98828 15.3664V15.6986L6.07031 15.7817C6.04297 15.9202 6.07031 16.0032 6.15234 16.0309V16.3632L6.23438 16.4463V16.6955L6.31641 16.7785V17.0277L6.39844 17.1108V17.36L6.48047 17.4431V17.6923L6.5625 17.7754V18.0246C6.6582 18.0661 6.68555 18.1769 6.64453 18.3569L6.72656 18.4399C6.69922 18.5784 6.72656 18.6615 6.80859 18.6891V18.9383L6.89062 19.0214C6.86328 19.1599 6.89062 19.2429 6.97266 19.2706V19.5198L7.05469 19.6029C7.02734 19.7414 7.05469 19.8244 7.13672 19.8521V20.1013C7.23242 20.1429 7.25977 20.2536 7.21875 20.4336L7.30078 20.5167C7.27344 20.6551 7.30078 20.7382 7.38281 20.7659V21.0151L7.46484 21.0982C7.4375 21.2366 7.46484 21.3197 7.54688 21.3474V21.5966L7.62891 21.6796C7.60156 21.8181 7.62891 21.9012 7.71094 21.9289V22.1781L7.79297 22.2611C7.76562 22.3996 7.79297 22.4827 7.875 22.5103V22.7596L7.95703 22.8426V23.0918L8.03906 23.1749V23.4241L8.12109 23.5072V23.7564L8.20312 23.8395V24.0887L8.28516 24.1717C8.24414 24.3517 8.27148 24.4625 8.36719 24.504V24.8363L8.44922 24.9194C8.4082 25.0993 8.43555 25.2101 8.53125 25.2516V25.667L8.61328 25.7501V26.0823L8.69531 26.1654V26.4977L8.77734 26.5808V27.0792L8.85938 27.1622V27.4945L8.94141 27.5776V28.1591L9.02344 28.2421V28.7406L9.10547 28.8236V29.9035L9.1875 29.9866V32.6448L9.10547 32.7279V33.5586L9.02344 33.6417V34.1401L8.94141 34.2232V34.6385L8.85938 34.7216V35.0539L8.77734 35.1369V35.4692L8.69531 35.5523V35.8015L8.61328 35.8846V36.1338C8.51758 36.1753 8.49023 36.2861 8.53125 36.466L8.44922 36.5491V36.7152L8.36719 36.7983V36.9645L8.28516 37.0475V37.2137C8.20312 37.2414 8.17578 37.3244 8.20312 37.4629L8.03906 37.7121V37.8782L7.95703 37.9613V38.0444L7.875 38.1274V38.2105L7.71094 38.4597V38.6259L7.54688 38.792V38.8751L7.46484 38.9581V39.0412L7.38281 39.1243V39.2073L7.30078 39.2904V39.3735L7.21875 39.4565V39.5396L7.13672 39.6227V39.7058C7.06836 39.7196 7.04102 39.775 7.05469 39.8719L6.89062 40.038V40.1211C6.82227 40.1349 6.79492 40.1903 6.80859 40.2872L6.68555 40.4118H0.123047L0 40.2872V39.955L0.123047 39.8304H0.533203L0.615234 39.7473H1.18945L1.27148 39.6642H1.59961L1.68164 39.5812H1.92773L2.00977 39.4981H2.17383C2.20117 39.415 2.2832 39.3873 2.41992 39.415C2.43359 39.3458 2.48828 39.3181 2.58398 39.3319L2.74805 39.1658H2.83008L2.99414 38.9997H3.07617L3.44531 38.6259V38.5428L3.60938 38.3766V38.2936L3.77344 38.0444V37.8782L3.9375 37.629V37.2967L4.01953 37.2137C3.97852 37.0337 4.00586 36.9229 4.10156 36.8814V35.8846L4.18359 35.8015V5.97949L4.10156 5.89642V4.89958L4.01953 4.81651V4.40117L3.9375 4.3181V4.15196L3.85547 4.06889V3.90275C3.77344 3.87506 3.74609 3.79199 3.77344 3.65354C3.70508 3.63969 3.67773 3.58431 3.69141 3.4874L3.52734 3.32126V3.23819L2.91211 2.61517H2.83008L2.66602 2.44903C2.57031 2.46287 2.51563 2.43518 2.50195 2.36596H2.33789L2.25586 2.28289C2.11914 2.31058 2.03711 2.28289 2.00977 2.19982C1.83203 2.24136 1.72266 2.21367 1.68164 2.11675H1.35352L1.27148 2.03368H0.779297L0.697266 1.95061H0.123047L0 1.82601V1.49373L0.123047 1.36912Z" fill="#0F2646"/>
<path d="M8.81445 2.0339H9.22461C9.26562 2.13081 9.375 2.1585 9.55273 2.11697L9.75781 2.32464C9.77148 2.42156 9.74414 2.47694 9.67578 2.49078V2.73999L9.59375 2.82306C9.62109 2.96151 9.59375 3.04458 9.51172 3.07227V3.32148C9.41602 3.36301 9.38867 3.47377 9.42969 3.65376L9.34766 3.73682V4.15217L9.14258 4.35985L9.06055 4.27678H8.73242L8.65039 4.19371H8.32227L8.24023 4.11064H8.11719C8.11719 4.0691 8.11719 3.97219 8.11719 3.81989C8.18555 3.80605 8.21289 3.75067 8.19922 3.65376C8.13086 3.63991 8.10352 3.58453 8.11719 3.48762L7.99414 3.36301C7.89844 3.37686 7.84375 3.34917 7.83008 3.27994H7.41992L7.29688 3.15534V2.90613C7.37891 2.87844 7.40625 2.79537 7.37891 2.65692L7.58398 2.44925H7.83008L7.99414 2.61538H8.4043L8.52734 2.49078V2.40771L8.69141 2.24157V2.1585L8.81445 2.0339Z" fill="#BB9B62" stroke="#BB9B62" stroke-width="0.214844"/>
<path d="M7.79688 5.19064H7.83789H8.33008L8.41211 5.27371H9.06836H9.10938V5.39831L9.19141 5.48138V5.64752L9.10938 5.73059V7.47505L8.98633 7.59965H8.6582L8.57617 7.51659L8.49414 7.59965H7.83789L7.75586 7.51659H7.63281V7.47505V6.97663L7.42773 6.76896C7.29102 6.79665 7.20898 6.76896 7.18164 6.68589L7.09961 6.76896C6.96289 6.74127 6.88086 6.76896 6.85352 6.85203H6.60742L6.48438 6.72742V6.14594L6.60742 6.02133C6.70312 6.03518 6.75781 6.00749 6.77148 5.93826H6.93555L7.01758 6.02133H7.3457C7.35938 5.95211 7.41406 5.92442 7.50977 5.93826L7.71484 5.73059V5.39831L7.79688 5.31524V5.19064Z" fill="#BB9B62" stroke="#BB9B62" stroke-width="0.214844"/>
<path d="M8.97852 8.51339C8.99219 8.58261 9.04688 8.6103 9.14258 8.59646L9.26562 8.72106V9.63483L9.34766 9.7179V10.2163L9.42969 10.2994V10.5486L9.51172 10.6317C9.51172 10.7424 9.51172 10.8116 9.51172 10.8393H9.38867L9.30664 10.9224H8.89648L8.81445 11.0055H8.32227L8.24023 11.0885H7.91211L7.78906 10.9639V10.5486L7.58398 10.3409H7.17383L6.68164 10.6732C6.66797 10.604 6.61328 10.5763 6.51758 10.5901L6.39453 10.4655C6.43555 10.2855 6.4082 10.1748 6.3125 10.1332L6.39453 10.0502C6.28516 9.9948 6.28516 9.93942 6.39453 9.88404V9.80097L6.51758 9.67636H7.00977C7.03711 9.59329 7.11914 9.5656 7.25586 9.59329L7.54297 9.30255V8.8872L7.625 8.80413V8.67953H7.66602H8.4043L8.48633 8.59646H8.89648L8.97852 8.51339Z" fill="#BB9B62" stroke="#BB9B62" stroke-width="0.214844"/>
<path d="M9.55664 11.8361C9.7207 11.8085 9.81641 11.85 9.84375 11.9608C9.81641 12.0992 9.84375 12.1823 9.92578 12.21V12.5422L10.0078 12.6253V12.8745L10.0898 12.9576C10.0625 13.096 10.0898 13.1791 10.1719 13.2068V13.456L10.2539 13.5391C10.2266 13.6775 10.2539 13.7606 10.3359 13.7883V14.2036V14.2452C10.3086 14.2452 10.2402 14.2452 10.1309 14.2452L10.0488 14.3282H9.80273L9.7207 14.4113H9.47461L9.39258 14.4944H9.06445L8.98242 14.5774H8.73633C8.72266 14.6467 8.66797 14.6744 8.57227 14.6605L8.36719 14.4528V14.1206L8.16211 13.9129H7.75195L7.25977 14.4113C7.16406 14.3975 7.10938 14.4252 7.0957 14.4944C7.08203 14.4252 7.02734 14.3975 6.93164 14.4113L6.80859 14.2867C6.83594 14.1483 6.80859 14.0652 6.72656 14.0375V13.5391L6.93164 13.3314H7.3418L7.42383 13.2483H7.50586L7.75195 13.0822H7.875V12.9576L7.95703 12.8745V12.293L8.08008 12.1684H8.49023L8.57227 12.0854C8.75 12.1269 8.85938 12.0992 8.90039 12.0023H9.22852L9.31055 11.9192C9.44727 11.9469 9.5293 11.9192 9.55664 11.8361Z" fill="#BB9B62" stroke="#BB9B62" stroke-width="0.214844"/>
<path d="M10.5396 15.0759H10.6216L10.8267 15.2836V15.4497C10.9087 15.4774 10.936 15.5605 10.9087 15.6989L11.0728 15.9481V16.1143L11.1548 16.1973C11.1411 16.2942 11.1685 16.3496 11.2368 16.3635V16.5296L11.3188 16.6127V16.8619L11.4009 16.945V17.1111C11.4829 17.1388 11.5103 17.2219 11.4829 17.3603L11.3599 17.4849C11.2642 17.4711 11.2095 17.4988 11.1958 17.568H10.9497L10.8677 17.651H10.7036L10.6216 17.7341C10.4849 17.7064 10.4028 17.7341 10.3755 17.8172H10.1294L10.0474 17.9003C9.86963 17.8587 9.76025 17.8864 9.71924 17.9833H9.39111H9.3501C9.3501 17.9556 9.3501 17.8864 9.3501 17.7757C9.28174 17.7618 9.25439 17.7064 9.26807 17.6095L9.06299 17.4018H8.73486C8.72119 17.4711 8.6665 17.4988 8.5708 17.4849L8.36572 17.6926V17.7757L8.16064 17.9833C8.06494 17.9695 8.01025 17.9972 7.99658 18.0664H7.83252L7.70947 17.9418V17.8587L7.54541 17.6095V17.3603C7.46338 17.3326 7.43604 17.2495 7.46338 17.1111L7.66846 16.9034H7.99658L8.07861 16.8204H8.24268C8.25635 16.7511 8.31104 16.7234 8.40674 16.7373L8.69385 16.4465V16.0312C8.61182 16.0035 8.58447 15.9204 8.61182 15.782L8.81689 15.5743H9.14502C9.18604 15.4774 9.29541 15.4497 9.47314 15.4912L9.55518 15.4082C9.69189 15.4359 9.77393 15.4082 9.80127 15.3251H10.0474L10.1294 15.242C10.2251 15.2559 10.2798 15.2282 10.2935 15.159H10.4575L10.5396 15.0759Z" fill="#BB9B62" stroke="#BB9B62" stroke-width="0.214844"/>
<path d="M11.7671 18.3156L11.9722 18.5233V18.6894L12.0542 18.7725V18.9387L12.1362 19.0217V19.1879C12.2183 19.2156 12.2456 19.2986 12.2183 19.4371L12.3823 19.6863V19.8524L12.5464 20.1016V20.2678L12.6284 20.3508V20.517C12.7104 20.5447 12.7378 20.6277 12.7104 20.7662L12.5874 20.8908H12.4233L12.3413 20.9739C12.2046 20.9462 12.1226 20.9739 12.0952 21.0569H11.8491L11.603 21.2231C11.4253 21.1815 11.3159 21.2092 11.2749 21.3061H10.9468L10.8647 21.3892H10.6187L10.5366 21.4723H10.4136V21.3477L10.2495 21.0985C10.2495 20.9877 10.2495 20.9185 10.2495 20.8908H10.1265L10.0444 20.8077H9.63428L9.47021 20.9739H9.34717V21.0985L9.06006 21.3892C8.96436 21.3754 8.90967 21.4031 8.896 21.4723H8.73193L8.52686 21.2646V21.0154L8.44482 20.9323V20.7662C8.37646 20.7523 8.34912 20.697 8.36279 20.6001C8.43115 20.5862 8.4585 20.5308 8.44482 20.4339L8.6499 20.2262H8.896C8.93701 20.1293 9.04639 20.1016 9.22412 20.1432L9.38818 19.977H9.47021L9.67529 19.7694V19.2709L9.59326 19.1879L9.67529 19.1048V18.9802H9.79834L9.88037 18.8971H10.2905C10.3315 18.8002 10.4409 18.7725 10.6187 18.8141L10.7007 18.731H10.8647L10.9468 18.6479H11.1108C11.1382 18.5648 11.2202 18.5372 11.3569 18.5648L11.439 18.4818H11.521L11.7671 18.3156Z" fill="#BB9B62" stroke="#BB9B62" stroke-width="0.214844"/>
<path d="M12.6699 21.8874H13.0801L13.2031 22.012C13.1758 22.1505 13.2031 22.2335 13.2852 22.2612V22.5104L13.3672 22.5935C13.3398 22.732 13.3672 22.815 13.4492 22.8427V23.175L13.6133 23.4242V23.6734L13.6953 23.7565C13.668 23.8949 13.6953 23.978 13.7773 24.0057V24.338L13.6543 24.4626H13.4082L13.3262 24.5456C13.1895 24.518 13.1074 24.5456 13.0801 24.6287H12.752L12.6699 24.7118C12.5332 24.6841 12.4512 24.7118 12.4238 24.7948H12.0137L11.9316 24.8779H11.5215C11.5078 24.9471 11.4531 24.9748 11.3574 24.961L11.2344 24.8364C11.248 24.7395 11.2207 24.6841 11.1523 24.6702V24.338L11.0293 24.2134C10.9336 24.2272 10.8789 24.1995 10.8652 24.1303H10.5371C10.5234 24.1995 10.4687 24.2272 10.373 24.2134L9.96289 24.6287H9.55273L9.42969 24.5041C9.44336 24.4072 9.41602 24.3518 9.34766 24.338C9.38867 24.158 9.36133 24.0472 9.26562 24.0057V23.6734L9.4707 23.4657H10.0449C10.0723 23.3827 10.1543 23.355 10.291 23.3827C10.3047 23.3134 10.3594 23.2858 10.4551 23.2996L10.7422 23.0089C10.7695 22.8704 10.7422 22.7873 10.6602 22.7596V22.4274L10.7832 22.3028H11.3574L11.4395 22.2197H11.8496L11.9316 22.1366H12.0957L12.1777 22.0536H12.3418L12.4238 21.9705C12.5605 21.9982 12.6426 21.9705 12.6699 21.8874Z" fill="#BB9B62" stroke="#BB9B62" stroke-width="0.214844"/>
<path d="M13.7402 25.4597H14.0684L14.1914 25.5843V25.9996L14.2734 26.0827V26.415L14.3555 26.498V27.0795L14.4375 27.1626V28.1594V28.201H14.3145L14.2324 28.284H13.8223L13.7402 28.3671H13.002L12.9199 28.4502H11.9355L11.8125 28.3256C11.8262 28.2287 11.7988 28.1733 11.7305 28.1594V27.9102L11.8125 27.8272L11.6074 27.6195C11.5117 27.6333 11.457 27.6056 11.4434 27.5364H11.0332L10.541 27.8687H10.0488L9.92578 27.7441V27.3287L9.84375 27.2457V26.8303L10.0488 26.6227H10.459L10.541 26.7057H11.0332L11.1152 26.6227H11.2793L11.3613 26.5396H11.4844V26.498V25.8335C11.4636 25.7781 11.5046 25.7643 11.6074 25.792C11.6484 25.695 11.7578 25.6674 11.9355 25.7089L12.0176 25.792H12.5098L12.5918 25.7089H13.002L13.084 25.6258H13.4121L13.4941 25.5427C13.6309 25.5704 13.7129 25.5427 13.7402 25.4597Z" fill="#BB9B62" stroke="#BB9B62" stroke-width="0.214844"/>
<path d="M12.0176 29.2806C12.1953 29.2391 12.3047 29.2668 12.3457 29.3637H12.6738L12.7559 29.4468H14.0684L14.1504 29.3637H14.5605H14.6016V29.4883L14.6836 29.5714V30.7343L14.6016 30.8174V31.9804L14.3965 32.1881H12.8379L12.7559 32.105H12.3457L12.2637 32.0219H11.9355H11.8945V31.8973L11.8125 31.8142V31.565C11.9082 31.5235 11.9355 31.4127 11.8945 31.2328L11.6895 31.0251C11.5938 31.0389 11.5391 31.0112 11.5254 30.942H11.0332L10.7871 31.1081H10.377L10.1719 30.9005V30.1528L10.2539 30.0698V29.9452H10.377L10.459 29.8621H10.7051L10.7871 29.9452H10.8691L11.1152 30.1113H11.6074L11.6895 30.0282H11.8125V29.9036L11.8945 29.8206V29.4052L12.0176 29.2806Z" fill="#BB9B62" stroke="#BB9B62" stroke-width="0.214844"/>
<path d="M11.8535 32.9358H12.0176C12.0449 33.0188 12.127 33.0465 12.2637 33.0188L12.5098 33.185H12.6738L12.7559 33.268C12.8926 33.2403 12.9746 33.268 13.002 33.3511H14.2324L14.3555 33.4757V33.8911L14.2734 33.9741C14.3008 34.1126 14.2734 34.1956 14.1914 34.2233V34.5556L14.1094 34.6387V34.8879C14.0137 34.9294 13.9863 35.0402 14.0273 35.2202L13.9453 35.3032V35.4694L13.7812 35.7186V35.9678L13.5762 36.1755C13.4805 36.1893 13.4258 36.1616 13.4121 36.0924H13.002L12.9199 36.0093H12.5098L12.4277 35.9263C12.291 35.9539 12.209 35.9263 12.1816 35.8432H11.9355L11.8535 35.7601H11.6895C11.6621 35.6771 11.5801 35.6494 11.4434 35.6771L11.3203 35.5524C11.334 35.4555 11.3066 35.4002 11.2383 35.3863L11.3203 35.3032V34.7217L11.1152 34.5141H10.8691C10.8281 34.4172 10.7188 34.3895 10.541 34.431C10.5137 34.5141 10.4316 34.5418 10.2949 34.5141C10.2812 34.4449 10.2266 34.4172 10.1309 34.431L10.0078 34.3064V33.8911L10.0898 33.808V33.5588L10.1719 33.4757V33.3511H10.2129H10.623L11.0332 33.6834H11.4434L11.5254 33.6003H11.6484V33.5588V33.1434L11.8535 32.9358Z" fill="#BB9B62" stroke="#BB9B62" stroke-width="0.214844"/>
<path d="M11.1152 36.4247L11.1973 36.5078H11.2793C11.293 36.577 11.3477 36.6047 11.4434 36.5908L11.6074 36.757H11.6895L11.7715 36.8401H11.8535L11.9355 36.9231H12.0176L12.2637 37.0893H12.5098L12.5918 37.1723H12.8379L12.9199 37.2554C13.0293 37.2554 13.0977 37.2554 13.125 37.2554V37.2969V37.6292L13.043 37.7123V37.7954L12.8789 38.0446V38.2107L12.7969 38.2938V38.3768L12.7148 38.4599V38.543L12.6328 38.6261V38.7091L12.5508 38.7922V38.8753C12.4824 38.8891 12.4551 38.9445 12.4688 39.0414L12.3047 39.2075V39.2906L12.2227 39.3737V39.4567C12.1543 39.4706 12.127 39.526 12.1406 39.6229L12.0176 39.7475H11.7715L11.5254 39.5814H11.3613L11.2793 39.4983H11.1973L11.1152 39.4152H11.0332L10.9512 39.3321H10.8691L10.7871 39.2491H10.7051L10.623 39.166H10.541C10.5273 39.0968 10.4727 39.0691 10.377 39.0829L10.1719 38.8753V38.6261L10.2539 38.543V38.3768C10.3359 38.3492 10.3633 38.2661 10.3359 38.1276L10.2539 38.0446V37.92H10.1309L9.9668 37.7538H9.55664C9.54297 37.6846 9.48828 37.6569 9.39258 37.6707L9.1875 37.4631L9.26953 37.38V37.1308C9.35156 37.1031 9.37891 37.02 9.35156 36.8816L9.55664 36.6739H9.7207C9.73438 36.7431 9.78906 36.7708 9.88477 36.757L10.2129 37.0893H10.7051L10.9102 36.8816V36.6324L11.1152 36.4247Z" fill="#BB9B62" stroke="#BB9B62" stroke-width="0.214844"/>
<path d="M8.4082 39.6644H8.57227L8.98242 40.0798C9.07812 40.0659 9.13281 40.0936 9.14648 40.1628H9.39258L9.59766 39.9552C9.57031 39.789 9.61133 39.6921 9.7207 39.6644H9.88477L10.2129 39.9967H10.2949L10.459 40.1628H10.541L10.623 40.2459H10.7051L10.7871 40.329H10.8691L10.9512 40.412H11.0332L11.2793 40.5782H11.4023V40.7028L11.4844 40.7859L11.4023 40.8689V40.952C11.334 40.9658 11.3066 41.0212 11.3203 41.1181L11.0742 41.3673V41.4504L10.9102 41.6166V41.6996L10.7461 41.8658V41.9488L10.582 42.115V42.198L10.418 42.3642V42.4473L10.2949 42.5719C10.1992 42.558 10.1445 42.5857 10.1309 42.6549L10.0488 42.5719H9.9668C9.95312 42.5026 9.89844 42.4749 9.80273 42.4888L9.63867 42.3226H9.55664C9.54297 42.2534 9.48828 42.2257 9.39258 42.2396L9.22852 42.0734H9.14648L8.69531 41.6166V41.5335C8.76367 41.5196 8.79102 41.4643 8.77734 41.3673L8.94141 41.2012V40.952L8.6543 40.6613C8.55859 40.6751 8.50391 40.6474 8.49023 40.5782H8.24414L8.03906 40.3705V40.2044L8.12109 40.1213V40.0382C8.18945 40.0244 8.2168 39.969 8.20312 39.8721L8.4082 39.6644Z" fill="#BB9B62" stroke="#BB9B62" stroke-width="0.214844"/>
<path d="M54.4102 29.883V29.4494H55.0078C55.6797 29.4494 56.1562 29.2346 56.4375 28.8049C56.6094 28.5471 56.6953 27.969 56.6953 27.0705V16.8049C56.6953 15.8127 56.5859 15.1916 56.3672 14.9416C56.0625 14.5979 55.6094 14.426 55.0078 14.426H54.4102V13.9924H60.8789C63.2539 13.9924 65.0586 14.2619 66.293 14.801C67.5352 15.34 68.5312 16.2385 69.2812 17.4963C70.0391 18.7541 70.418 20.2072 70.418 21.8557C70.418 24.0666 69.7461 25.9143 68.4023 27.3986C66.8945 29.0549 64.5977 29.883 61.5117 29.883H54.4102ZM58.9453 28.7346C59.9375 28.9533 60.7695 29.0627 61.4414 29.0627C63.2539 29.0627 64.7578 28.426 65.9531 27.1525C67.1484 25.8791 67.7461 24.1525 67.7461 21.9729C67.7461 19.7775 67.1484 18.0471 65.9531 16.7815C64.7578 15.5158 63.2227 14.883 61.3477 14.883C60.6445 14.883 59.8438 14.9963 58.9453 15.2229V28.7346ZM75.2344 18.8322V21.2463C76.1328 19.6369 77.0547 18.8322 78 18.8322C78.4297 18.8322 78.7852 18.965 79.0664 19.2307C79.3477 19.4885 79.4883 19.7893 79.4883 20.133C79.4883 20.4377 79.3867 20.6955 79.1836 20.9065C78.9805 21.1174 78.7383 21.2229 78.457 21.2229C78.1836 21.2229 77.875 21.09 77.5312 20.8244C77.1953 20.551 76.9453 20.4143 76.7812 20.4143C76.6406 20.4143 76.4883 20.4924 76.3242 20.6486C75.9727 20.969 75.6094 21.4963 75.2344 22.2307V27.3752C75.2344 27.969 75.3086 28.4182 75.457 28.7229C75.5586 28.9338 75.7383 29.1096 75.9961 29.2502C76.2539 29.3908 76.625 29.4611 77.1094 29.4611V29.883H71.6133V29.4611C72.1602 29.4611 72.5664 29.3752 72.832 29.2033C73.0273 29.0783 73.1641 28.8791 73.2422 28.6057C73.2812 28.4729 73.3008 28.094 73.3008 27.469V23.3088C73.3008 22.0588 73.2734 21.3166 73.2188 21.0822C73.1719 20.84 73.0781 20.6643 72.9375 20.5549C72.8047 20.4455 72.6367 20.3908 72.4336 20.3908C72.1914 20.3908 71.918 20.4494 71.6133 20.5666L71.4961 20.1447L74.7422 18.8322H75.2344ZM81.0234 27.6096C81.3906 27.6096 81.6992 27.7385 81.9492 27.9963C82.1992 28.2463 82.3242 28.551 82.3242 28.9104C82.3242 29.2697 82.1953 29.5783 81.9375 29.8361C81.6875 30.0861 81.3828 30.2111 81.0234 30.2111C80.6641 30.2111 80.3555 30.0861 80.0977 29.8361C79.8477 29.5783 79.7227 29.2697 79.7227 28.9104C79.7227 28.5432 79.8477 28.2346 80.0977 27.9846C80.3555 27.7346 80.6641 27.6096 81.0234 27.6096ZM90.4336 29.883V29.4494H91.0312C91.7031 29.4494 92.1797 29.2346 92.4609 28.8049C92.6328 28.5471 92.7188 27.969 92.7188 27.0705V16.8049C92.7188 15.8127 92.6094 15.1916 92.3906 14.9416C92.0859 14.5979 91.6328 14.426 91.0312 14.426H90.4336V13.9924H96.9023C99.2773 13.9924 101.082 14.2619 102.316 14.801C103.559 15.34 104.555 16.2385 105.305 17.4963C106.062 18.7541 106.441 20.2072 106.441 21.8557C106.441 24.0666 105.77 25.9143 104.426 27.3986C102.918 29.0549 100.621 29.883 97.5352 29.883H90.4336ZM94.9688 28.7346C95.9609 28.9533 96.793 29.0627 97.4648 29.0627C99.2773 29.0627 100.781 28.426 101.977 27.1525C103.172 25.8791 103.77 24.1525 103.77 21.9729C103.77 19.7775 103.172 18.0471 101.977 16.7815C100.781 15.5158 99.2461 14.883 97.3711 14.883C96.668 14.883 95.8672 14.9963 94.9688 15.2229V28.7346ZM109.922 23.1916C109.914 24.7854 110.301 26.0354 111.082 26.9416C111.863 27.8479 112.781 28.301 113.836 28.301C114.539 28.301 115.148 28.1096 115.664 27.7268C116.188 27.3361 116.625 26.6721 116.977 25.7346L117.34 25.969C117.176 27.0393 116.699 28.0158 115.91 28.8986C115.121 29.7736 114.133 30.2111 112.945 30.2111C111.656 30.2111 110.551 29.7111 109.629 28.7111C108.715 27.7033 108.258 26.3518 108.258 24.6565C108.258 22.8205 108.727 21.3908 109.664 20.3674C110.609 19.3361 111.793 18.8205 113.215 18.8205C114.418 18.8205 115.406 19.219 116.18 20.0158C116.953 20.8049 117.34 21.8635 117.34 23.1916H109.922ZM109.922 22.5119H114.891C114.852 21.8244 114.77 21.34 114.645 21.0588C114.449 20.6213 114.156 20.2775 113.766 20.0275C113.383 19.7775 112.98 19.6525 112.559 19.6525C111.91 19.6525 111.328 19.9065 110.812 20.4143C110.305 20.9143 110.008 21.6135 109.922 22.5119ZM124.031 18.8322C125.656 18.8322 126.961 19.4494 127.945 20.6838C128.781 21.7385 129.199 22.9494 129.199 24.3166C129.199 25.2775 128.969 26.2502 128.508 27.2346C128.047 28.219 127.41 28.9611 126.598 29.4611C125.793 29.9611 124.895 30.2111 123.902 30.2111C122.285 30.2111 121 29.5666 120.047 28.2775C119.242 27.1916 118.84 25.9729 118.84 24.6213C118.84 23.6369 119.082 22.6604 119.566 21.6916C120.059 20.715 120.703 19.9963 121.5 19.5354C122.297 19.0666 123.141 18.8322 124.031 18.8322ZM123.668 19.594C123.254 19.594 122.836 19.719 122.414 19.969C122 20.2111 121.664 20.6408 121.406 21.258C121.148 21.8752 121.02 22.6682 121.02 23.6369C121.02 25.1994 121.328 26.5471 121.945 27.6799C122.57 28.8127 123.391 29.3791 124.406 29.3791C125.164 29.3791 125.789 29.0666 126.281 28.4416C126.773 27.8166 127.02 26.7424 127.02 25.219C127.02 23.3127 126.609 21.8127 125.789 20.719C125.234 19.969 124.527 19.594 123.668 19.594ZM139.898 25.8049C139.609 27.219 139.043 28.3088 138.199 29.0744C137.355 29.8322 136.422 30.2111 135.398 30.2111C134.18 30.2111 133.117 29.6994 132.211 28.676C131.305 27.6525 130.852 26.2697 130.852 24.5275C130.852 22.84 131.352 21.469 132.352 20.4143C133.359 19.3596 134.566 18.8322 135.973 18.8322C137.027 18.8322 137.895 19.1135 138.574 19.676C139.254 20.2307 139.594 20.8088 139.594 21.4104C139.594 21.7072 139.496 21.9494 139.301 22.1369C139.113 22.3166 138.848 22.4065 138.504 22.4065C138.043 22.4065 137.695 22.258 137.461 21.9611C137.328 21.7971 137.238 21.4846 137.191 21.0236C137.152 20.5627 136.996 20.2111 136.723 19.969C136.449 19.7346 136.07 19.6174 135.586 19.6174C134.805 19.6174 134.176 19.9065 133.699 20.4846C133.066 21.2502 132.75 22.2619 132.75 23.5197C132.75 24.801 133.062 25.9338 133.688 26.9182C134.32 27.8947 135.172 28.383 136.242 28.383C137.008 28.383 137.695 28.1213 138.305 27.5979C138.734 27.2385 139.152 26.5861 139.559 25.6408L139.898 25.8049ZM145.137 13.219V27.4572C145.137 28.1291 145.184 28.5744 145.277 28.7932C145.379 29.0119 145.531 29.1799 145.734 29.2971C145.938 29.4065 146.316 29.4611 146.871 29.4611V29.883H141.609V29.4611C142.102 29.4611 142.438 29.4104 142.617 29.3088C142.797 29.2072 142.938 29.0393 143.039 28.8049C143.141 28.5705 143.191 28.1213 143.191 27.4572V17.7072C143.191 16.4963 143.164 15.7541 143.109 15.4807C143.055 15.1994 142.965 15.008 142.84 14.9065C142.723 14.8049 142.57 14.7541 142.383 14.7541C142.18 14.7541 141.922 14.8166 141.609 14.9416L141.41 14.5315L144.609 13.219H145.137ZM150.855 13.219C151.184 13.219 151.461 13.3361 151.688 13.5705C151.922 13.7971 152.039 14.0744 152.039 14.4025C152.039 14.7307 151.922 15.0119 151.688 15.2463C151.461 15.4807 151.184 15.5979 150.855 15.5979C150.527 15.5979 150.246 15.4807 150.012 15.2463C149.777 15.0119 149.66 14.7307 149.66 14.4025C149.66 14.0744 149.773 13.7971 150 13.5705C150.234 13.3361 150.52 13.219 150.855 13.219ZM151.828 18.8322V27.4572C151.828 28.1291 151.875 28.5783 151.969 28.8049C152.07 29.0236 152.215 29.1877 152.402 29.2971C152.598 29.4065 152.949 29.4611 153.457 29.4611V29.883H148.242V29.4611C148.766 29.4611 149.117 29.4104 149.297 29.3088C149.477 29.2072 149.617 29.0393 149.719 28.8049C149.828 28.5705 149.883 28.1213 149.883 27.4572V23.3205C149.883 22.1565 149.848 21.4025 149.777 21.0588C149.723 20.8088 149.637 20.6369 149.52 20.5432C149.402 20.4416 149.242 20.3908 149.039 20.3908C148.82 20.3908 148.555 20.4494 148.242 20.5666L148.078 20.1447L151.312 18.8322H151.828ZM162.387 28.676C161.863 29.2229 161.352 29.6174 160.852 29.8596C160.352 30.094 159.812 30.2111 159.234 30.2111C158.062 30.2111 157.039 29.7229 156.164 28.7463C155.289 27.7619 154.852 26.5002 154.852 24.9611C154.852 23.4221 155.336 22.0158 156.305 20.7424C157.273 19.4611 158.52 18.8205 160.043 18.8205C160.988 18.8205 161.77 19.1213 162.387 19.7229V17.7424C162.387 16.5158 162.355 15.7619 162.293 15.4807C162.238 15.1994 162.148 15.008 162.023 14.9065C161.898 14.8049 161.742 14.7541 161.555 14.7541C161.352 14.7541 161.082 14.8166 160.746 14.9416L160.594 14.5315L163.793 13.219H164.32V25.6291C164.32 26.8869 164.348 27.6565 164.402 27.9377C164.465 28.2111 164.559 28.4025 164.684 28.5119C164.816 28.6213 164.969 28.676 165.141 28.676C165.352 28.676 165.633 28.6096 165.984 28.4768L166.113 28.8869L162.926 30.2111H162.387V28.676ZM162.387 27.8557V22.3244C162.34 21.7932 162.199 21.3088 161.965 20.8713C161.73 20.4338 161.418 20.1057 161.027 19.8869C160.645 19.6604 160.27 19.5471 159.902 19.5471C159.215 19.5471 158.602 19.8557 158.062 20.4729C157.352 21.2854 156.996 22.4729 156.996 24.0354C156.996 25.6135 157.34 26.8244 158.027 27.6682C158.715 28.5041 159.48 28.9221 160.324 28.9221C161.035 28.9221 161.723 28.5666 162.387 27.8557ZM168.609 23.1916C168.602 24.7854 168.988 26.0354 169.77 26.9416C170.551 27.8479 171.469 28.301 172.523 28.301C173.227 28.301 173.836 28.1096 174.352 27.7268C174.875 27.3361 175.312 26.6721 175.664 25.7346L176.027 25.969C175.863 27.0393 175.387 28.0158 174.598 28.8986C173.809 29.7736 172.82 30.2111 171.633 30.2111C170.344 30.2111 169.238 29.7111 168.316 28.7111C167.402 27.7033 166.945 26.3518 166.945 24.6565C166.945 22.8205 167.414 21.3908 168.352 20.3674C169.297 19.3361 170.48 18.8205 171.902 18.8205C173.105 18.8205 174.094 19.219 174.867 20.0158C175.641 20.8049 176.027 21.8635 176.027 23.1916H168.609ZM168.609 22.5119H173.578C173.539 21.8244 173.457 21.34 173.332 21.0588C173.137 20.6213 172.844 20.2775 172.453 20.0275C172.07 19.7775 171.668 19.6525 171.246 19.6525C170.598 19.6525 170.016 19.9065 169.5 20.4143C168.992 20.9143 168.695 21.6135 168.609 22.5119ZM184.406 18.8322V22.4885H184.02C183.723 21.34 183.34 20.5588 182.871 20.1447C182.41 19.7307 181.82 19.5236 181.102 19.5236C180.555 19.5236 180.113 19.6682 179.777 19.9572C179.441 20.2463 179.273 20.5666 179.273 20.9182C179.273 21.3557 179.398 21.7307 179.648 22.0432C179.891 22.3635 180.383 22.7033 181.125 23.0627L182.836 23.8947C184.422 24.6682 185.215 25.6877 185.215 26.9533C185.215 27.9299 184.844 28.719 184.102 29.3205C183.367 29.9143 182.543 30.2111 181.629 30.2111C180.973 30.2111 180.223 30.094 179.379 29.8596C179.121 29.7815 178.91 29.7424 178.746 29.7424C178.566 29.7424 178.426 29.844 178.324 30.0471H177.938V26.215H178.324C178.543 27.3088 178.961 28.133 179.578 28.6877C180.195 29.2424 180.887 29.5197 181.652 29.5197C182.191 29.5197 182.629 29.3635 182.965 29.051C183.309 28.7307 183.48 28.3479 183.48 27.9025C183.48 27.3635 183.289 26.9104 182.906 26.5432C182.531 26.176 181.777 25.7111 180.645 25.1486C179.512 24.5861 178.77 24.0783 178.418 23.6252C178.066 23.1799 177.891 22.6174 177.891 21.9377C177.891 21.0549 178.191 20.3166 178.793 19.7229C179.402 19.1291 180.188 18.8322 181.148 18.8322C181.57 18.8322 182.082 18.9221 182.684 19.1018C183.082 19.219 183.348 19.2775 183.48 19.2775C183.605 19.2775 183.703 19.2502 183.773 19.1955C183.844 19.1408 183.926 19.0197 184.02 18.8322H184.406Z" fill="#0F2646"/>
</svg>
