<svg width="185" height="43" viewBox="0 0 185 43" fill="none" xmlns="http://www.w3.org/2000/svg">
<path d="M11.4395 0.123047C11.4805 0.136892 11.4941 0.178427 11.4805 0.247651L11.3164 0.49686V0.746069L11.2344 0.829139C11.2617 0.967588 11.2344 1.05066 11.1523 1.07835V1.32756L11.0703 1.41063V1.65983L10.9883 1.7429C11.0156 1.88135 10.9883 1.96442 10.9062 1.99211V2.32439L10.8242 2.40746C10.8652 2.58745 10.8379 2.69821 10.7422 2.73974V3.23816L10.6602 3.32123V4.23499L10.5781 4.31806V6.47787L10.6602 6.56094V7.14243L10.7422 7.2255V7.80699L10.8242 7.89006V8.3054L10.9062 8.38847V8.88689L10.9883 8.96996V9.21917C11.084 9.26071 11.1113 9.37146 11.0703 9.55145L11.1523 9.63452C11.125 9.77297 11.1523 9.85604 11.2344 9.88373C11.1934 10.0637 11.2207 10.1745 11.3164 10.216V10.5483L11.3984 10.6314V10.9636L11.4805 11.0467V11.2128L11.5625 11.2959C11.5352 11.4344 11.5625 11.5174 11.6445 11.5451V11.7943L11.7266 11.8774V12.0435L11.8906 12.2927V12.4589L11.9727 12.542V12.7081L12.0547 12.7912C12.0273 12.9296 12.0547 13.0127 12.1367 13.0404V13.2896L12.3008 13.5388V13.7049L12.4648 13.8711V14.0372L12.6289 14.2864V14.4526L12.7109 14.5356V14.7018C12.793 14.7295 12.8203 14.8125 12.793 14.951L12.957 15.2002V15.3663L13.1211 15.6155V15.7817L13.2852 16.0309V16.197L13.4492 16.4462V16.6124L13.6133 16.7785V17.0277L13.7773 17.1939V17.36L13.9414 17.6092V17.7753L14.0234 17.8584C14.0098 17.9553 14.0371 18.0107 14.1055 18.0246V18.1907L14.2695 18.4399V18.606C14.3516 18.6337 14.3789 18.7168 14.3516 18.8552L14.5156 19.1045V19.2706C14.5977 19.2983 14.625 19.3814 14.5977 19.5198L14.6797 19.6029V19.6859L14.8438 19.9352V20.1013C14.9258 20.129 14.9531 20.2121 14.9258 20.3505L15.0898 20.5997V20.7658L15.1719 20.8489C15.1582 20.9458 15.1855 21.0012 15.2539 21.0151V21.1812L15.418 21.4304V21.6796L15.5 21.7627V21.9288L15.582 22.0119V22.178L15.6641 22.2611C15.6367 22.3996 15.6641 22.4826 15.7461 22.5103V22.7595L15.8281 22.8426V23.0087C15.9102 23.0364 15.9375 23.1195 15.9102 23.2579L16.0742 23.5071V23.7564L16.1562 23.8394V24.0886L16.2383 24.1717V24.4209L16.3203 24.504V24.7532L16.4023 24.8363C16.3613 25.0162 16.3887 25.127 16.4844 25.1685V25.5008L16.5664 25.5839V25.9162L16.6484 25.9992V26.4146L16.7305 26.4977V26.8299L16.8125 26.913V27.6606L16.8945 27.7437V29.0728L16.9766 29.1559V30.6511L16.8945 30.7342V31.648L16.8125 31.731V32.2295L16.7305 32.3125V32.7279L16.6484 32.8109V33.2263L16.5664 33.3094C16.5938 33.4478 16.5664 33.5309 16.4844 33.5586V33.8078L16.4023 33.8908V34.1401L16.3203 34.2231V34.3893L16.2383 34.4723V34.6385C16.1562 34.6662 16.1289 34.7492 16.1562 34.8877L15.9922 35.1369V35.3861C15.9102 35.4138 15.8828 35.4969 15.9102 35.6353L15.8281 35.7184V35.8014L15.7461 35.8845V35.9676L15.582 36.2168V36.3829L15.5 36.466V36.5491L15.418 36.6321V36.7152L15.2539 36.9644V37.1306L15.0898 37.2967V37.3798L15.0078 37.4628V37.5459C14.9395 37.5598 14.9121 37.6151 14.9258 37.7121L14.7617 37.8782V37.9613C14.6934 37.9751 14.666 38.0305 14.6797 38.1274L14.5156 38.2935V38.3766L14.3516 38.5427V38.6258L14.1875 38.792V38.875L14.0234 39.0412V39.1242L13.7773 39.3734V39.4565L13.6133 39.6227V39.7057L13.2852 40.038V40.1211L13.0801 40.3287L13.0391 40.2872L13.1211 40.2041V40.1211L13.2852 39.9549V39.8719L13.6133 39.4565V39.3734L13.6953 39.2904V39.2073L13.7773 39.1242V39.0412C13.8457 39.0273 13.873 38.9719 13.8594 38.875L14.0234 38.7089V38.6258L14.1055 38.5427V38.4597L14.1875 38.3766V38.2935L14.3516 38.0443V37.8782L14.4336 37.7951V37.7121L14.5156 37.629V37.5459L14.5977 37.4628V37.3798L14.6797 37.2967V37.2136L14.8438 36.9644V36.7983C14.9258 36.7706 14.9531 36.6875 14.9258 36.5491L15.0898 36.2999V36.1337L15.1719 36.0507V35.8845L15.2539 35.8014C15.2266 35.663 15.2539 35.5799 15.3359 35.5522V35.303C15.4316 35.2615 15.459 35.1507 15.418 34.9708L15.5 34.8877C15.4727 34.7492 15.5 34.6662 15.582 34.6385V34.3893L15.6641 34.3062V34.057L15.7461 33.9739V33.5586L15.8281 33.4755C15.7871 33.2955 15.8145 33.1848 15.9102 33.1432V32.8109L15.9922 32.7279V31.5649L16.0742 31.4818V29.4051L15.9922 29.322V28.3252L15.9102 28.2421V27.6606L15.8281 27.5776V27.1622L15.7461 27.0791V26.7469L15.6641 26.6638C15.7051 26.4838 15.6777 26.373 15.582 26.3315V25.9992L15.5 25.9162V25.5839L15.418 25.5008V25.1685L15.3359 25.0855C15.3633 24.947 15.3359 24.8639 15.2539 24.8363V24.5871L15.1719 24.504V24.2548C15.0762 24.2132 15.0488 24.1025 15.0898 23.9225L15.0078 23.8394V23.6733L14.9258 23.5902V23.4241L14.8438 23.341V23.1749L14.7617 23.0918V22.9257L14.6797 22.8426C14.707 22.7041 14.6797 22.6211 14.5977 22.5934V22.3442L14.5156 22.2611C14.5293 22.1642 14.502 22.1088 14.4336 22.095V21.9288L14.2695 21.6796V21.5135C14.1875 21.4858 14.1602 21.4027 14.1875 21.2643L14.0234 21.0151V20.8489C13.9414 20.8212 13.9141 20.7382 13.9414 20.5997L13.7773 20.3505V20.1844L13.6953 20.1013C13.709 20.0044 13.6816 19.949 13.6133 19.9352V19.769L13.4492 19.5198V19.3537C13.3672 19.326 13.3398 19.2429 13.3672 19.1045L13.2852 19.0214C13.2988 18.9245 13.2715 18.8691 13.2031 18.8552V18.6891L13.1211 18.606V18.523L12.957 18.2738V18.1076L12.875 18.0246C12.8887 17.9276 12.8613 17.8723 12.793 17.8584V17.6923L12.6289 17.4431V17.2769C12.5469 17.2492 12.5195 17.1662 12.5469 17.0277L12.3828 16.7785V16.6124L12.3008 16.5293C12.3145 16.4324 12.2871 16.377 12.2188 16.3632V16.197L12.0547 15.9478V15.7817C11.9727 15.754 11.9453 15.6709 11.9727 15.5325L11.8906 15.4494C11.9043 15.3525 11.877 15.2971 11.8086 15.2833V15.1171L11.6445 14.8679V14.7018L11.5625 14.6187C11.5898 14.4802 11.5625 14.3972 11.4805 14.3695V14.1203L11.3164 13.8711V13.7049L11.2344 13.6219V13.4557L11.1523 13.3727V13.2065C11.0703 13.1788 11.043 13.0958 11.0703 12.9573L10.9883 12.8742V12.625C10.8926 12.5835 10.8652 12.4727 10.9062 12.2927L10.8242 12.2097C10.8516 12.0712 10.8242 11.9882 10.7422 11.9605V11.7113L10.6602 11.6282C10.6875 11.4897 10.6602 11.4067 10.5781 11.379V11.1298L10.4961 11.0467C10.5371 10.8667 10.5098 10.756 10.4141 10.7144V10.3821L10.332 10.2991V9.88373L10.25 9.80066V9.38531L10.168 9.30224V8.96996L10.0859 8.88689V8.3054L10.0039 8.22233V7.55778L9.92188 7.47471V5.23183L10.0039 5.14876V4.56727L10.0859 4.4842V3.90271L10.168 3.81965C10.1406 3.6812 10.168 3.59813 10.25 3.57044V3.15509L10.332 3.07202C10.3047 2.93357 10.332 2.8505 10.4141 2.82281V2.5736L10.4961 2.49053V2.32439L10.5781 2.24132V2.07518L10.6602 1.99211V1.82597L10.7422 1.7429V1.57677C10.8242 1.54908 10.8516 1.46601 10.8242 1.32756L10.9062 1.24449V1.16142L10.9883 1.07835V0.995278L11.1523 0.746069V0.57993L11.2344 0.49686V0.413791C11.3027 0.399946 11.3301 0.344566 11.3164 0.247651L11.4395 0.123047Z" fill="#BB9B62" stroke="#BB9B62" stroke-width="0.214844"/>
<path d="M13.498 1.28613H18.3379L18.4199 1.3692H19.4863L19.5684 1.45227H20.3066L20.3887 1.53534H20.7988L20.8809 1.61841H21.4551L21.5371 1.70148C21.7148 1.65995 21.8242 1.68764 21.8652 1.78455H22.2754L22.3574 1.86762C22.5352 1.82609 22.6445 1.85378 22.6855 1.95069H23.0137L23.0957 2.03376H23.3418L23.4238 2.11683H23.6699C23.7109 2.21374 23.8203 2.24143 23.998 2.1999L24.0801 2.28297C24.2168 2.25528 24.2988 2.28297 24.3262 2.36604H24.5723L24.6543 2.44911H24.8184L24.9004 2.53218H25.0645L25.1465 2.61525H25.3105L25.3926 2.69832C25.5293 2.67063 25.6113 2.69832 25.6387 2.78139H25.8027L26.0488 2.94753H26.2129L26.2949 3.03059H26.377L26.459 3.11366H26.541L26.7871 3.2798H26.9512L27.0332 3.36287H27.1152L27.1973 3.44594H27.2793L27.3613 3.52901H27.4434L27.5254 3.61208H27.6074L27.6895 3.69515H27.7715L27.8535 3.77822H27.9355L28.0176 3.86129H28.0996L28.1816 3.94436H28.2637C28.2773 4.01359 28.332 4.04128 28.4277 4.02743L28.5918 4.19357H28.6738C28.6875 4.26279 28.7422 4.29048 28.8379 4.27664L29.248 4.60892H29.3301C29.3438 4.67814 29.3984 4.70583 29.4941 4.69199L29.6582 4.85813H29.7402L29.9043 5.02427H29.9863L30.2324 5.27347H30.3145L30.5605 5.52268H30.6426L30.8066 5.68882H30.8887L31.2988 6.10417H31.3809L31.9551 6.68566H32.0781V6.8518H32.2012L32.9805 7.64096V7.72403L33.5547 8.30552V8.38859L33.9648 8.80393V8.887L34.2109 9.13621V9.21928L34.375 9.38542V9.46849L34.5391 9.63463V9.7177L34.7852 9.96691V10.05L35.1133 10.4653V10.5484L35.1953 10.6315V10.7145C35.2637 10.7284 35.291 10.7838 35.2773 10.8807L35.4414 11.0468V11.1299L35.5234 11.213V11.296L35.6055 11.3791V11.4622L35.6875 11.5452V11.6283L35.7695 11.7114V11.7944L35.8516 11.8775V11.9606L35.9336 12.0436V12.1267L36.0156 12.2098V12.2929L36.1797 12.5421V12.7082L36.2617 12.7913V12.8743L36.3438 12.9574V13.0405L36.5078 13.2897V13.4558L36.5898 13.5389V13.705L36.6719 13.7881V13.9543L36.7539 14.0373V14.2035L36.918 14.4527V14.7019L37 14.7849C36.9727 14.9234 37 15.0065 37.082 15.0342V15.2834L37.1641 15.3664V15.6156L37.2461 15.6987C37.2051 15.8787 37.2324 15.9895 37.3281 16.031V16.3633L37.4102 16.4463V16.7786L37.4922 16.8617V17.3601L37.5742 17.4432V17.7755L37.6562 17.8585V18.44L37.7383 18.5231V19.6861L37.8203 19.7691V21.9289L37.7383 22.012V23.0919L37.6562 23.175V23.6734L37.5742 23.7565V24.2549L37.4922 24.338V24.7533L37.4102 24.8364C37.4512 25.0164 37.4238 25.1271 37.3281 25.1686V25.5009L37.2461 25.584V25.8332L37.1641 25.9163V26.1655C37.0684 26.207 37.041 26.3178 37.082 26.4978L37 26.5808C37.0273 26.7193 37 26.8024 36.918 26.83V27.0793L36.8359 27.1623V27.3285L36.7539 27.4115V27.5777L36.6719 27.6607V27.8269L36.5898 27.9099V28.0761C36.5078 28.1038 36.4805 28.1868 36.5078 28.3253L36.4258 28.4084V28.4914L36.3438 28.5745V28.6576L36.1797 28.9068V29.0729L36.0977 29.156V29.2391L36.0156 29.3221V29.4052L35.9336 29.4883V29.5713L35.8516 29.6544V29.7375L35.7695 29.8205V29.9036L35.6875 29.9867V30.0698L35.6055 30.1528V30.2359L35.5234 30.319V30.402L35.4414 30.4851V30.5682L35.3594 30.6512V30.7343C35.291 30.7482 35.2637 30.8035 35.2773 30.9005L35.1133 31.0666V31.1497L34.7852 31.565V31.6481C34.7168 31.6619 34.6895 31.7173 34.7031 31.8142L34.5391 31.9804V32.0634L34.375 32.2296V32.3126L34.1289 32.5618V32.6449L33.8828 32.8941V32.9772L33.5547 33.3095V33.3925L33.0625 33.891V33.974L31.709 35.3447H31.627L31.1348 35.8431H31.0527L30.7246 36.1754H30.6426L30.3965 36.4246H30.3145L30.0684 36.6738H29.9863L29.7402 36.923H29.6582C29.6445 36.9922 29.5898 37.0199 29.4941 37.0061L29.3301 37.1722H29.248L28.8379 37.5045H28.7559C28.7422 37.5737 28.6875 37.6014 28.5918 37.5876L28.4277 37.7537H28.3457L28.2637 37.8368H28.1816L28.0996 37.9198H28.0176L27.9355 38.0029H27.8535C27.8398 38.0721 27.7852 38.0998 27.6895 38.086L27.5254 38.2521H27.3613L27.1973 38.4183H27.0332L26.9512 38.5013H26.8691L26.623 38.6675H26.459L26.377 38.7505H26.2949L26.0488 38.9167H25.8848L25.8027 38.9997H25.6387C25.6113 39.0828 25.5293 39.1105 25.3926 39.0828L25.1465 39.249H24.9824L24.9004 39.332H24.7363L24.6543 39.4151H24.4902L24.4082 39.4982C24.2715 39.4705 24.1895 39.4982 24.1621 39.5812H23.916L23.834 39.6643H23.5879L23.5059 39.7474H23.2598L23.1777 39.8304C23 39.7889 22.8906 39.8166 22.8496 39.9135H22.5215L22.4395 39.9966H22.1113L22.0293 40.0796H21.7012L21.6191 40.1627H21.0449L20.9629 40.2458H20.4707L20.3887 40.3289H19.5684L19.4863 40.4119H15.5488L15.4668 40.495C15.4121 40.3842 15.3574 40.3842 15.3027 40.495L15.1797 40.3704L15.4258 40.1212V40.0381L15.5898 39.872V39.7889L15.7539 39.6228V39.5397L15.877 39.4151H17.9277L18.0098 39.332H18.584L18.666 39.249H19.2402L19.3223 39.1659H19.6504L19.7324 39.0828H20.0605L20.1426 38.9997H20.3887L20.4707 38.9167H20.7168L20.7988 38.8336H21.0449C21.0859 38.7367 21.1953 38.709 21.373 38.7505L21.4551 38.6675H21.6191L21.7012 38.5844H21.8652L21.9473 38.5013H22.1113C22.1387 38.4183 22.2207 38.3906 22.3574 38.4183L22.6035 38.2521H22.7676L23.0137 38.086H23.1777L23.2598 38.0029H23.3418L23.4238 37.9198H23.5059L23.5879 37.8368H23.6699L23.752 37.7537H23.834L23.916 37.6706H23.998L24.0801 37.5876H24.1621C24.1758 37.5183 24.2305 37.4906 24.3262 37.5045L24.4902 37.3383H24.6543L24.8184 37.1722H24.9004C24.9141 37.103 24.9688 37.0753 25.0645 37.0891L25.2285 36.923H25.3105L25.4746 36.7569H25.5566L25.7207 36.5907H25.8027L25.9668 36.4246H26.0488L26.377 36.0923H26.459L26.7871 35.76H26.8691L27.4434 35.1785H27.5254L27.9766 34.7217V34.6386L28.7969 33.8079V33.7248L29.043 33.4756V33.3925L29.2891 33.1433V33.0603L29.5352 32.8111V32.728L29.6992 32.5618V32.4788L30.0273 32.0634V31.9804C30.0957 31.9665 30.123 31.9111 30.1094 31.8142L30.2734 31.6481V31.565L30.3555 31.4819V31.3989L30.4375 31.3158V31.2327L30.5195 31.1497V31.0666L30.6016 30.9835V30.9005L30.6836 30.8174V30.7343L30.7656 30.6512V30.5682L30.8477 30.4851V30.402L30.9297 30.319V30.2359L31.0938 29.9867V29.8205L31.1758 29.7375V29.6544L31.3398 29.4052V29.2391L31.5039 28.9899V28.8237L31.5859 28.7406V28.5745L31.668 28.4914V28.3253L31.75 28.2422C31.7227 28.1038 31.75 28.0207 31.832 27.993V27.7438L31.9141 27.6607C31.8867 27.5223 31.9141 27.4392 31.9961 27.4115V27.1623L32.0781 27.0793V26.83L32.1602 26.747C32.1191 26.567 32.1465 26.4562 32.2422 26.4147V26.0824L32.3242 25.9993C32.2832 25.8194 32.3105 25.7086 32.4062 25.6671V25.2517L32.4883 25.1686V24.7533L32.5703 24.6702V24.0887L32.6523 24.0057V23.5073L32.7344 23.4242V22.0951L32.8164 22.012V19.6861L32.7344 19.603V18.6061L32.6523 18.5231V17.9416L32.5703 17.8585V17.277L32.4883 17.194V16.8617L32.4062 16.7786V16.4463L32.3242 16.3633V16.031L32.2422 15.9479V15.6987L32.1602 15.6156V15.3664L32.0781 15.2834V15.0342C31.9824 14.9926 31.9551 14.8819 31.9961 14.7019L31.9141 14.6188V14.4527L31.832 14.3696V14.2035L31.75 14.1204V13.9543L31.668 13.8712V13.705L31.5859 13.622V13.4558C31.5039 13.4281 31.4766 13.3451 31.5039 13.2066L31.3398 12.9574V12.7913L31.2578 12.7082V12.6251L31.1758 12.5421V12.459L31.0938 12.3759V12.2929L31.0117 12.2098V12.1267L30.8477 11.8775V11.7114C30.7793 11.6975 30.752 11.6421 30.7656 11.5452L30.6016 11.3791V11.296L30.5195 11.213V11.1299L30.4375 11.0468V10.9637C30.3691 10.9499 30.3418 10.8945 30.3555 10.7976L30.1914 10.6315V10.5484C30.123 10.5346 30.0957 10.4792 30.1094 10.3823L29.9453 10.2161V10.133L29.7812 9.96691V9.88384L29.6172 9.7177V9.63463L29.3711 9.38542V9.30235L29.125 9.05314V8.97007L28.9609 8.80393V8.72086L28.2227 7.97324V7.89017L27.1152 6.76873H27.0332L26.541 6.27031H26.459L26.1309 5.93803H26.0488L25.8027 5.68882H25.7207L25.5566 5.52268H25.4746L25.3105 5.35654H25.2285L25.0645 5.19041H24.9824L24.5723 4.85813H24.4902L24.4082 4.77506H24.3262L24.2441 4.69199H24.1621C24.1484 4.62276 24.0937 4.59507 23.998 4.60892L23.834 4.44278H23.752L23.6699 4.35971H23.5879L23.5059 4.27664H23.4238L23.3418 4.19357H23.2598L23.1777 4.1105H23.0957L23.0137 4.02743H22.9316L22.6855 3.86129H22.5215L22.4395 3.77822C22.3438 3.79207 22.2891 3.76438 22.2754 3.69515H22.1113L21.8652 3.52901H21.7012L21.6191 3.44594H21.4551L21.373 3.36287H21.209C21.1816 3.2798 21.0996 3.25211 20.9629 3.2798L20.7168 3.11366H20.4707L20.3887 3.03059C20.252 3.05828 20.1699 3.03059 20.1426 2.94753H19.8145L19.7324 2.86446C19.5957 2.89215 19.5137 2.86446 19.4863 2.78139H19.1582L19.0762 2.69832H18.748L18.666 2.61525H18.2559L18.1738 2.53218H17.7637L17.6816 2.44911H16.9434L16.8613 2.36604H13.0879H13.0469V2.24143L13.1289 2.15836V1.99222L13.293 1.74302V1.57688C13.3613 1.56303 13.3887 1.50765 13.375 1.41074L13.498 1.28613Z" fill="#0F2646"/>
<path d="M0.123047 1.36892H6.84961C6.89062 1.35507 6.9043 1.4243 6.89062 1.57659L6.80859 1.65966V1.74273L6.72656 1.8258V1.90887L6.64453 1.99194V2.07501L6.48047 2.32422V2.49036C6.41211 2.5042 6.38477 2.55958 6.39844 2.6565L6.31641 2.73957V2.90571L6.23438 2.98878V3.15492L6.15234 3.23798V3.40412L6.07031 3.48719V3.65333L5.98828 3.7364C6.01563 3.87485 5.98828 3.95792 5.90625 3.98561V4.23482L5.82422 4.31789V4.5671L5.74219 4.65017C5.7832 4.83015 5.75586 4.94091 5.66016 4.98245V5.31473L5.57812 5.39779V5.73007L5.49609 5.81314V6.31156L5.41406 6.39463V6.89305L5.33203 6.97612V7.80681L5.25 7.88988V10.5481L5.33203 10.6312V11.7111L5.41406 11.7942V12.3756L5.49609 12.4587V13.0402L5.57812 13.1233V13.5386L5.66016 13.6217V14.037L5.74219 14.1201V14.4524L5.82422 14.5355V14.9508L5.90625 15.0339C5.86523 15.2139 5.89258 15.3246 5.98828 15.3661V15.6984L6.07031 15.7815C6.04297 15.9199 6.07031 16.003 6.15234 16.0307V16.363L6.23438 16.4461V16.6953L6.31641 16.7783V17.0275L6.39844 17.1106V17.3598L6.48047 17.4429V17.6921L6.5625 17.7752V18.0244C6.6582 18.0659 6.68555 18.1767 6.64453 18.3567L6.72656 18.4397C6.69922 18.5782 6.72656 18.6612 6.80859 18.6889V18.9381L6.89062 19.0212C6.86328 19.1597 6.89062 19.2427 6.97266 19.2704V19.5196L7.05469 19.6027C7.02734 19.7411 7.05469 19.8242 7.13672 19.8519V20.1011C7.23242 20.1427 7.25977 20.2534 7.21875 20.4334L7.30078 20.5165C7.27344 20.6549 7.30078 20.738 7.38281 20.7657V21.0149L7.46484 21.098C7.4375 21.2364 7.46484 21.3195 7.54688 21.3472V21.5964L7.62891 21.6794C7.60156 21.8179 7.62891 21.901 7.71094 21.9286V22.1779L7.79297 22.2609C7.76562 22.3994 7.79297 22.4824 7.875 22.5101V22.7593L7.95703 22.8424V23.0916L8.03906 23.1747V23.4239L8.12109 23.507V23.7562L8.20312 23.8393V24.0885L8.28516 24.1715C8.24414 24.3515 8.27148 24.4623 8.36719 24.5038V24.8361L8.44922 24.9192C8.4082 25.0991 8.43555 25.2099 8.53125 25.2514V25.6668L8.61328 25.7499V26.0821L8.69531 26.1652V26.4975L8.77734 26.5805V27.079L8.85938 27.162V27.4943L8.94141 27.5774V28.1589L9.02344 28.2419V28.7404L9.10547 28.8234V29.9033L9.1875 29.9864V32.6446L9.10547 32.7277V33.5584L9.02344 33.6415V34.1399L8.94141 34.223V34.6383L8.85938 34.7214V35.0537L8.77734 35.1367V35.469L8.69531 35.5521V35.8013L8.61328 35.8843V36.1336C8.51758 36.1751 8.49023 36.2859 8.53125 36.4658L8.44922 36.5489V36.715L8.36719 36.7981V36.9643L8.28516 37.0473V37.2135C8.20312 37.2412 8.17578 37.3242 8.20312 37.4627L8.03906 37.7119V37.878L7.95703 37.9611V38.0442L7.875 38.1272V38.2103L7.71094 38.4595V38.6256L7.54688 38.7918V38.8749L7.46484 38.9579V39.041L7.38281 39.1241V39.2071L7.30078 39.2902V39.3733L7.21875 39.4563V39.5394L7.13672 39.6225V39.7055C7.06836 39.7194 7.04102 39.7748 7.05469 39.8717L6.89062 40.0378V40.1209C6.82227 40.1347 6.79492 40.1901 6.80859 40.287L6.68555 40.4116H0.123047L0 40.287V39.9548L0.123047 39.8302H0.533203L0.615234 39.7471H1.18945L1.27148 39.664H1.59961L1.68164 39.5809H1.92773L2.00977 39.4979H2.17383C2.20117 39.4148 2.2832 39.3871 2.41992 39.4148C2.43359 39.3456 2.48828 39.3179 2.58398 39.3317L2.74805 39.1656H2.83008L2.99414 38.9995H3.07617L3.44531 38.6256V38.5426L3.60938 38.3764V38.2934L3.77344 38.0442V37.878L3.9375 37.6288V37.2965L4.01953 37.2135C3.97852 37.0335 4.00586 36.9227 4.10156 36.8812V35.8843L4.18359 35.8013V5.97928L4.10156 5.89621V4.89938L4.01953 4.81631V4.40096L3.9375 4.31789V4.15175L3.85547 4.06868V3.90254C3.77344 3.87485 3.74609 3.79178 3.77344 3.65333C3.70508 3.63949 3.67773 3.58411 3.69141 3.48719L3.52734 3.32105V3.23798L2.91211 2.61496H2.83008L2.66602 2.44882C2.57031 2.46267 2.51563 2.43498 2.50195 2.36575H2.33789L2.25586 2.28268C2.11914 2.31037 2.03711 2.28268 2.00977 2.19961C1.83203 2.24115 1.72266 2.21346 1.68164 2.11654H1.35352L1.27148 2.03348H0.779297L0.697266 1.95041H0.123047L0 1.8258V1.49352L0.123047 1.36892Z" fill="#0F2646"/>
<path d="M8.81445 2.03369H9.22461C9.26562 2.13061 9.375 2.1583 9.55273 2.11676L9.75781 2.32444C9.77148 2.42135 9.74414 2.47673 9.67578 2.49057V2.73978L9.59375 2.82285C9.62109 2.9613 9.59375 3.04437 9.51172 3.07206V3.32127C9.41602 3.36281 9.38867 3.47356 9.42969 3.65355L9.34766 3.73662V4.15197L9.14258 4.35964L9.06055 4.27657H8.73242L8.65039 4.1935H8.32227L8.24023 4.11043H8.11719C8.11719 4.0689 8.11719 3.97198 8.11719 3.81969C8.18555 3.80584 8.21289 3.75046 8.19922 3.65355C8.13086 3.6397 8.10352 3.58432 8.11719 3.48741L7.99414 3.36281C7.89844 3.37665 7.84375 3.34896 7.83008 3.27974H7.41992L7.29688 3.15513V2.90592C7.37891 2.87823 7.40625 2.79516 7.37891 2.65671L7.58398 2.44904H7.83008L7.99414 2.61518H8.4043L8.52734 2.49057V2.4075L8.69141 2.24137V2.1583L8.81445 2.03369Z" fill="#BB9B62" stroke="#BB9B62" stroke-width="0.214844"/>
<path d="M7.79688 5.19043H7.83789H8.33008L8.41211 5.2735H9.06836H9.10938V5.3981L9.19141 5.48117V5.64731L9.10938 5.73038V7.47484L8.98633 7.59945H8.6582L8.57617 7.51638L8.49414 7.59945H7.83789L7.75586 7.51638H7.63281V7.47484V6.97643L7.42773 6.76875C7.29102 6.79644 7.20898 6.76875 7.18164 6.68568L7.09961 6.76875C6.96289 6.74106 6.88086 6.76875 6.85352 6.85182H6.60742L6.48438 6.72722V6.14573L6.60742 6.02113C6.70312 6.03497 6.75781 6.00728 6.77148 5.93806H6.93555L7.01758 6.02113H7.3457C7.35938 5.9519 7.41406 5.92421 7.50977 5.93806L7.71484 5.73038V5.3981L7.79688 5.31503V5.19043Z" fill="#BB9B62" stroke="#BB9B62" stroke-width="0.214844"/>
<path d="M8.97852 8.51318C8.99219 8.58241 9.04688 8.6101 9.14258 8.59625L9.26562 8.72086V9.63462L9.34766 9.71769V10.2161L9.42969 10.2992V10.5484L9.51172 10.6315C9.51172 10.7422 9.51172 10.8114 9.51172 10.8391H9.38867L9.30664 10.9222H8.89648L8.81445 11.0053H8.32227L8.24023 11.0883H7.91211L7.78906 10.9637V10.5484L7.58398 10.3407H7.17383L6.68164 10.673C6.66797 10.6038 6.61328 10.5761 6.51758 10.5899L6.39453 10.4653C6.43555 10.2853 6.4082 10.1746 6.3125 10.133L6.39453 10.05C6.28516 9.99459 6.28516 9.93921 6.39453 9.88383V9.80076L6.51758 9.67616H7.00977C7.03711 9.59309 7.11914 9.5654 7.25586 9.59309L7.54297 9.30234V8.887L7.625 8.80393V8.67932H7.66602H8.4043L8.48633 8.59625H8.89648L8.97852 8.51318Z" fill="#BB9B62" stroke="#BB9B62" stroke-width="0.214844"/>
<path d="M9.55664 11.8359C9.7207 11.8083 9.81641 11.8498 9.84375 11.9605C9.81641 12.099 9.84375 12.1821 9.92578 12.2098V12.542L10.0078 12.6251V12.8743L10.0898 12.9574C10.0625 13.0958 10.0898 13.1789 10.1719 13.2066V13.4558L10.2539 13.5389C10.2266 13.6773 10.2539 13.7604 10.3359 13.7881V14.2034V14.245C10.3086 14.245 10.2402 14.245 10.1309 14.245L10.0488 14.328H9.80273L9.7207 14.4111H9.47461L9.39258 14.4942H9.06445L8.98242 14.5772H8.73633C8.72266 14.6465 8.66797 14.6742 8.57227 14.6603L8.36719 14.4526V14.1204L8.16211 13.9127H7.75195L7.25977 14.4111C7.16406 14.3973 7.10938 14.4249 7.0957 14.4942C7.08203 14.4249 7.02734 14.3973 6.93164 14.4111L6.80859 14.2865C6.83594 14.148 6.80859 14.065 6.72656 14.0373V13.5389L6.93164 13.3312H7.3418L7.42383 13.2481H7.50586L7.75195 13.082H7.875V12.9574L7.95703 12.8743V12.2928L8.08008 12.1682H8.49023L8.57227 12.0852C8.75 12.1267 8.85938 12.099 8.90039 12.0021H9.22852L9.31055 11.919C9.44727 11.9467 9.5293 11.919 9.55664 11.8359Z" fill="#BB9B62" stroke="#BB9B62" stroke-width="0.214844"/>
<path d="M10.5396 15.0757H10.6216L10.8267 15.2834V15.4495C10.9087 15.4772 10.936 15.5603 10.9087 15.6987L11.0728 15.9479V16.1141L11.1548 16.1971C11.1411 16.294 11.1685 16.3494 11.2368 16.3633V16.5294L11.3188 16.6125V16.8617L11.4009 16.9448V17.1109C11.4829 17.1386 11.5103 17.2216 11.4829 17.3601L11.3599 17.4847C11.2642 17.4709 11.2095 17.4985 11.1958 17.5678H10.9497L10.8677 17.6508H10.7036L10.6216 17.7339C10.4849 17.7062 10.4028 17.7339 10.3755 17.817H10.1294L10.0474 17.9001C9.86963 17.8585 9.76025 17.8862 9.71924 17.9831H9.39111H9.3501C9.3501 17.9554 9.3501 17.8862 9.3501 17.7754C9.28174 17.7616 9.25439 17.7062 9.26807 17.6093L9.06299 17.4016H8.73486C8.72119 17.4709 8.6665 17.4985 8.5708 17.4847L8.36572 17.6924V17.7754L8.16064 17.9831C8.06494 17.9693 8.01025 17.997 7.99658 18.0662H7.83252L7.70947 17.9416V17.8585L7.54541 17.6093V17.3601C7.46338 17.3324 7.43604 17.2493 7.46338 17.1109L7.66846 16.9032H7.99658L8.07861 16.8201H8.24268C8.25635 16.7509 8.31104 16.7232 8.40674 16.7371L8.69385 16.4463V16.031C8.61182 16.0033 8.58447 15.9202 8.61182 15.7818L8.81689 15.5741H9.14502C9.18604 15.4772 9.29541 15.4495 9.47314 15.491L9.55518 15.408C9.69189 15.4357 9.77393 15.408 9.80127 15.3249H10.0474L10.1294 15.2418C10.2251 15.2557 10.2798 15.228 10.2935 15.1588H10.4575L10.5396 15.0757Z" fill="#BB9B62" stroke="#BB9B62" stroke-width="0.214844"/>
<path d="M11.7671 18.3154L11.9722 18.5231V18.6892L12.0542 18.7723V18.9385L12.1362 19.0215V19.1877C12.2183 19.2154 12.2456 19.2984 12.2183 19.4369L12.3823 19.6861V19.8522L12.5464 20.1014V20.2676L12.6284 20.3506V20.5168C12.7104 20.5445 12.7378 20.6275 12.7104 20.766L12.5874 20.8906H12.4233L12.3413 20.9737C12.2046 20.946 12.1226 20.9737 12.0952 21.0567H11.8491L11.603 21.2229C11.4253 21.1813 11.3159 21.209 11.2749 21.3059H10.9468L10.8647 21.389H10.6187L10.5366 21.4721H10.4136V21.3475L10.2495 21.0983C10.2495 20.9875 10.2495 20.9183 10.2495 20.8906H10.1265L10.0444 20.8075H9.63428L9.47021 20.9737H9.34717V21.0983L9.06006 21.389C8.96436 21.3752 8.90967 21.4029 8.896 21.4721H8.73193L8.52686 21.2644V21.0152L8.44482 20.9321V20.766C8.37646 20.7521 8.34912 20.6968 8.36279 20.5998C8.43115 20.586 8.4585 20.5306 8.44482 20.4337L8.6499 20.226H8.896C8.93701 20.1291 9.04639 20.1014 9.22412 20.143L9.38818 19.9768H9.47021L9.67529 19.7691V19.2707L9.59326 19.1877L9.67529 19.1046V18.98H9.79834L9.88037 18.8969H10.2905C10.3315 18.8 10.4409 18.7723 10.6187 18.8138L10.7007 18.7308H10.8647L10.9468 18.6477H11.1108C11.1382 18.5646 11.2202 18.5369 11.3569 18.5646L11.439 18.4816H11.521L11.7671 18.3154Z" fill="#BB9B62" stroke="#BB9B62" stroke-width="0.214844"/>
<path d="M12.6699 21.8872H13.0801L13.2031 22.0118C13.1758 22.1503 13.2031 22.2333 13.2852 22.261V22.5102L13.3672 22.5933C13.3398 22.7317 13.3672 22.8148 13.4492 22.8425V23.1748L13.6133 23.424V23.6732L13.6953 23.7563C13.668 23.8947 13.6953 23.9778 13.7773 24.0055V24.3378L13.6543 24.4624H13.4082L13.3262 24.5454C13.1895 24.5177 13.1074 24.5454 13.0801 24.6285H12.752L12.6699 24.7116C12.5332 24.6839 12.4512 24.7116 12.4238 24.7946H12.0137L11.9316 24.8777H11.5215C11.5078 24.9469 11.4531 24.9746 11.3574 24.9608L11.2344 24.8362C11.248 24.7393 11.2207 24.6839 11.1523 24.67V24.3378L11.0293 24.2132C10.9336 24.227 10.8789 24.1993 10.8652 24.1301H10.5371C10.5234 24.1993 10.4687 24.227 10.373 24.2132L9.96289 24.6285H9.55273L9.42969 24.5039C9.44336 24.407 9.41602 24.3516 9.34766 24.3378C9.38867 24.1578 9.36133 24.047 9.26562 24.0055V23.6732L9.4707 23.4655H10.0449C10.0723 23.3825 10.1543 23.3548 10.291 23.3825C10.3047 23.3132 10.3594 23.2855 10.4551 23.2994L10.7422 23.0086C10.7695 22.8702 10.7422 22.7871 10.6602 22.7594V22.4272L10.7832 22.3026H11.3574L11.4395 22.2195H11.8496L11.9316 22.1364H12.0957L12.1777 22.0533H12.3418L12.4238 21.9703C12.5605 21.998 12.6426 21.9703 12.6699 21.8872Z" fill="#BB9B62" stroke="#BB9B62" stroke-width="0.214844"/>
<path d="M13.7402 25.4595H14.0684L14.1914 25.5841V25.9994L14.2734 26.0825V26.4148L14.3555 26.4978V27.0793L14.4375 27.1624V28.1592V28.2008H14.3145L14.2324 28.2838H13.8223L13.7402 28.3669H13.002L12.9199 28.45H11.9355L11.8125 28.3254C11.8262 28.2285 11.7988 28.1731 11.7305 28.1592V27.91L11.8125 27.827L11.6074 27.6193C11.5117 27.6331 11.457 27.6054 11.4434 27.5362H11.0332L10.541 27.8685H10.0488L9.92578 27.7439V27.3285L9.84375 27.2455V26.8301L10.0488 26.6224H10.459L10.541 26.7055H11.0332L11.1152 26.6224H11.2793L11.3613 26.5394H11.4844V26.4978V25.8333C11.4636 25.7779 11.5046 25.7641 11.6074 25.7918C11.6484 25.6948 11.7578 25.6671 11.9355 25.7087L12.0176 25.7918H12.5098L12.5918 25.7087H13.002L13.084 25.6256H13.4121L13.4941 25.5425C13.6309 25.5702 13.7129 25.5425 13.7402 25.4595Z" fill="#BB9B62" stroke="#BB9B62" stroke-width="0.214844"/>
<path d="M12.0176 29.2804C12.1953 29.2389 12.3047 29.2666 12.3457 29.3635H12.6738L12.7559 29.4465H14.0684L14.1504 29.3635H14.5605H14.6016V29.4881L14.6836 29.5712V30.7341L14.6016 30.8172V31.9802L14.3965 32.1878H12.8379L12.7559 32.1048H12.3457L12.2637 32.0217H11.9355H11.8945V31.8971L11.8125 31.814V31.5648C11.9082 31.5233 11.9355 31.4125 11.8945 31.2325L11.6895 31.0249C11.5938 31.0387 11.5391 31.011 11.5254 30.9418H11.0332L10.7871 31.1079H10.377L10.1719 30.9003V30.1526L10.2539 30.0696V29.945H10.377L10.459 29.8619H10.7051L10.7871 29.945H10.8691L11.1152 30.1111H11.6074L11.6895 30.028H11.8125V29.9034L11.8945 29.8204V29.405L12.0176 29.2804Z" fill="#BB9B62" stroke="#BB9B62" stroke-width="0.214844"/>
<path d="M11.8535 32.9355H12.0176C12.0449 33.0186 12.127 33.0463 12.2637 33.0186L12.5098 33.1848H12.6738L12.7559 33.2678C12.8926 33.2401 12.9746 33.2678 13.002 33.3509H14.2324L14.3555 33.4755V33.8908L14.2734 33.9739C14.3008 34.1124 14.2734 34.1954 14.1914 34.2231V34.5554L14.1094 34.6385V34.8877C14.0137 34.9292 13.9863 35.04 14.0273 35.22L13.9453 35.303V35.4692L13.7812 35.7184V35.9676L13.5762 36.1753C13.4805 36.1891 13.4258 36.1614 13.4121 36.0922H13.002L12.9199 36.0091H12.5098L12.4277 35.9261C12.291 35.9537 12.209 35.9261 12.1816 35.843H11.9355L11.8535 35.7599H11.6895C11.6621 35.6768 11.5801 35.6492 11.4434 35.6768L11.3203 35.5522C11.334 35.4553 11.3066 35.3999 11.2383 35.3861L11.3203 35.303V34.7215L11.1152 34.5139H10.8691C10.8281 34.417 10.7188 34.3893 10.541 34.4308C10.5137 34.5139 10.4316 34.5416 10.2949 34.5139C10.2812 34.4446 10.2266 34.417 10.1309 34.4308L10.0078 34.3062V33.8908L10.0898 33.8078V33.5586L10.1719 33.4755V33.3509H10.2129H10.623L11.0332 33.6832H11.4434L11.5254 33.6001H11.6484V33.5586V33.1432L11.8535 32.9355Z" fill="#BB9B62" stroke="#BB9B62" stroke-width="0.214844"/>
<path d="M11.1152 36.4243L11.1973 36.5074H11.2793C11.293 36.5766 11.3477 36.6043 11.4434 36.5905L11.6074 36.7566H11.6895L11.7715 36.8397H11.8535L11.9355 36.9227H12.0176L12.2637 37.0889H12.5098L12.5918 37.1719H12.8379L12.9199 37.255C13.0293 37.255 13.0977 37.255 13.125 37.255V37.2965V37.6288L13.043 37.7119V37.795L12.8789 38.0442V38.2103L12.7969 38.2934V38.3765L12.7148 38.4595V38.5426L12.6328 38.6257V38.7087L12.5508 38.7918V38.8749C12.4824 38.8887 12.4551 38.9441 12.4688 39.041L12.3047 39.2071V39.2902L12.2227 39.3733V39.4564C12.1543 39.4702 12.127 39.5256 12.1406 39.6225L12.0176 39.7471H11.7715L11.5254 39.581H11.3613L11.2793 39.4979H11.1973L11.1152 39.4148H11.0332L10.9512 39.3318H10.8691L10.7871 39.2487H10.7051L10.623 39.1656H10.541C10.5273 39.0964 10.4727 39.0687 10.377 39.0825L10.1719 38.8749V38.6257L10.2539 38.5426V38.3765C10.3359 38.3488 10.3633 38.2657 10.3359 38.1272L10.2539 38.0442V37.9196H10.1309L9.9668 37.7534H9.55664C9.54297 37.6842 9.48828 37.6565 9.39258 37.6704L9.1875 37.4627L9.26953 37.3796V37.1304C9.35156 37.1027 9.37891 37.0196 9.35156 36.8812L9.55664 36.6735H9.7207C9.73438 36.7427 9.78906 36.7704 9.88477 36.7566L10.2129 37.0889H10.7051L10.9102 36.8812V36.632L11.1152 36.4243Z" fill="#BB9B62" stroke="#BB9B62" stroke-width="0.214844"/>
<path d="M8.4082 39.6641H8.57227L8.98242 40.0794C9.07812 40.0656 9.13281 40.0933 9.14648 40.1625H9.39258L9.59766 39.9548C9.57031 39.7887 9.61133 39.6918 9.7207 39.6641H9.88477L10.2129 39.9963H10.2949L10.459 40.1625H10.541L10.623 40.2455H10.7051L10.7871 40.3286H10.8691L10.9512 40.4117H11.0332L11.2793 40.5778H11.4023V40.7024L11.4844 40.7855L11.4023 40.8686V40.9516C11.334 40.9655 11.3066 41.0209 11.3203 41.1178L11.0742 41.367V41.4501L10.9102 41.6162V41.6993L10.7461 41.8654V41.9485L10.582 42.1146V42.1977L10.418 42.3638V42.4469L10.2949 42.5715C10.1992 42.5577 10.1445 42.5853 10.1309 42.6546L10.0488 42.5715H9.9668C9.95312 42.5023 9.89844 42.4746 9.80273 42.4884L9.63867 42.3223H9.55664C9.54297 42.2531 9.48828 42.2254 9.39258 42.2392L9.22852 42.0731H9.14648L8.69531 41.6162V41.5331C8.76367 41.5193 8.79102 41.4639 8.77734 41.367L8.94141 41.2009V40.9516L8.6543 40.6609C8.55859 40.6747 8.50391 40.6471 8.49023 40.5778H8.24414L8.03906 40.3702V40.204L8.12109 40.1209V40.0379C8.18945 40.024 8.2168 39.9687 8.20312 39.8717L8.4082 39.6641Z" fill="#BB9B62" stroke="#BB9B62" stroke-width="0.214844"/>
<path d="M54.2812 28.6484C54.5703 28.5234 54.9062 28.4414 55.2891 28.4023C55.8438 28.3398 56.2578 28.207 56.5312 28.0039C56.7422 27.5742 56.8477 26.4805 56.8477 24.7227V22.8711L56.8711 21.7578L56.8477 20.9375L56.8711 19.4258L56.8359 15.6172C56.8359 15.1875 56.7734 14.9062 56.6484 14.7734C56.4688 14.5781 55.9922 14.3984 55.2188 14.2344C54.8984 14.1641 54.7031 14.1016 54.6328 14.0469C54.5625 13.9844 54.5195 13.8711 54.5039 13.707C54.6836 13.668 54.8086 13.6484 54.8789 13.6484H55.7109L56.1445 13.6367C56.4336 13.6367 56.7539 13.668 57.1055 13.7305C57.8242 13.7773 58.5625 13.8008 59.3203 13.8008C59.5391 13.8008 59.8516 13.7891 60.2578 13.7656C61.3359 13.7031 62.1094 13.6719 62.5781 13.6719C63.5234 13.6719 64.4141 13.7656 65.25 13.9531C66.0938 14.1406 66.9609 14.4883 67.8516 14.9961C68.4062 15.3164 68.9727 15.8242 69.5508 16.5195C70.1367 17.207 70.5781 17.9609 70.875 18.7812C71.1797 19.5938 71.332 20.5117 71.332 21.5352C71.332 22.4492 71.1641 23.3555 70.8281 24.2539C70.5 25.1523 70.0391 25.9336 69.4453 26.5977C68.8516 27.2539 68.25 27.75 67.6406 28.0859C67.0312 28.4141 66.1016 28.6992 64.8516 28.9414C64.3359 29.0352 63.4102 29.082 62.0742 29.082C61.1914 29.082 60.4727 29.0547 59.918 29C59.6992 28.9688 59.4648 28.9531 59.2148 28.9531C59.1758 28.9531 59.1328 28.957 59.0859 28.9648L54.3047 29.0469L54.2812 28.9531C54.2656 28.9141 54.2578 28.8711 54.2578 28.8242L54.2812 28.6484ZM60.2461 28.1914C60.8398 28.3945 61.4414 28.4961 62.0508 28.4961C62.8398 28.4961 63.6133 28.375 64.3711 28.1328C65.1289 27.8828 65.7969 27.5352 66.375 27.0898C66.9609 26.6367 67.4414 26.1289 67.8164 25.5664C68.1914 24.9961 68.457 24.4844 68.6133 24.0312C68.832 23.3672 68.9414 22.5039 68.9414 21.4414C68.9414 20.4258 68.7266 19.3945 68.2969 18.3477C68 17.6211 67.4766 16.9258 66.7266 16.2617C65.9844 15.5977 65.1055 15.1133 64.0898 14.8086C63.0742 14.4961 61.9766 14.3398 60.7969 14.3398C59.9844 14.3398 59.3828 14.4297 58.9922 14.6094C58.9453 14.6562 58.8984 14.7109 58.8516 14.7734C58.8047 14.9688 58.7812 15.1484 58.7812 15.3125C58.7812 15.4141 58.7852 15.5352 58.793 15.6758C58.8164 16.582 58.8281 17.3086 58.8281 17.8555L58.8164 20.5156C58.8164 24.4219 58.8867 26.5977 59.0273 27.043C59.1758 27.4805 59.582 27.8633 60.2461 28.1914ZM72.9961 28.918L72.9492 28.7656C72.9492 28.7109 72.9844 28.6289 73.0547 28.5195L73.7461 28.3789L74.7188 28.2031C74.7969 28.1641 74.8516 28.1094 74.8828 28.0391C74.9297 27.9375 74.9531 27.6367 74.9531 27.1367C74.9531 24.4805 74.9375 22.9492 74.9062 22.543C74.875 22.1289 74.8047 21.8672 74.6953 21.7578C74.5859 21.6484 74.3047 21.5625 73.8516 21.5C73.5859 21.4609 73.375 21.4102 73.2188 21.3477L73.2656 20.9961C74.0859 20.6602 74.6367 20.3711 74.918 20.1289C75.3086 19.7773 75.6406 19.3164 75.9141 18.7461L76.3125 18.7578C76.3594 19.1484 76.3828 20.0156 76.3828 21.3594L76.3711 21.5586C76.3711 21.6055 76.3789 21.6797 76.3945 21.7812C76.6914 21.2422 77.0625 20.7461 77.5078 20.293L77.7773 20.0234C77.8867 19.8984 77.9922 19.8008 78.0938 19.7305C78.6406 19.4023 79.0469 19.2383 79.3125 19.2383C79.6562 19.2383 79.9375 19.3555 80.1562 19.5898C80.375 19.8164 80.4844 20.0977 80.4844 20.4336C80.4844 20.6992 80.4062 20.9062 80.25 21.0547C80.0391 21.25 79.7969 21.3477 79.5234 21.3477C79.3984 21.3477 79.1523 21.2812 78.7852 21.1484C78.418 21.0156 78.1758 20.9492 78.0586 20.9492C77.8398 20.9492 77.6875 20.9844 77.6016 21.0547C77.3828 21.2266 77.1172 21.5781 76.8047 22.1094C76.5625 22.5078 76.4414 22.875 76.4414 23.2109L76.5 25.1445L76.5234 27.4648C76.5469 27.7305 76.5781 27.9023 76.6172 27.9805C76.6484 28.0352 76.7266 28.1016 76.8516 28.1797C77.6953 28.25 78.1953 28.3008 78.3516 28.332C78.4609 28.3398 78.543 28.3477 78.5977 28.3555C78.9336 28.3633 79.168 28.4102 79.3008 28.4961C79.3711 28.5352 79.4062 28.5938 79.4062 28.6719C79.4062 28.7188 79.375 28.7812 79.3125 28.8594L78.0117 28.8477L77.5195 28.8359L76.8047 28.8477H75.6094L74.9648 28.8828L72.9961 28.918ZM81.0234 27.9336C81.0234 27.5898 81.1484 27.2891 81.3984 27.0312C81.6562 26.7734 81.9531 26.6445 82.2891 26.6445C82.6172 26.6445 82.8945 26.7656 83.1211 27.0078C83.3477 27.25 83.4609 27.5547 83.4609 27.9219C83.4609 28.2891 83.3398 28.5977 83.0977 28.8477C82.8633 29.0977 82.5781 29.2227 82.2422 29.2227C81.9141 29.2227 81.6289 29.0977 81.3867 28.8477C81.1445 28.5898 81.0234 28.2852 81.0234 27.9336ZM91.1484 28.6484C91.4375 28.5234 91.7734 28.4414 92.1562 28.4023C92.7109 28.3398 93.125 28.207 93.3984 28.0039C93.6094 27.5742 93.7148 26.4805 93.7148 24.7227V22.8711L93.7383 21.7578L93.7148 20.9375L93.7383 19.4258L93.7031 15.6172C93.7031 15.1875 93.6406 14.9062 93.5156 14.7734C93.3359 14.5781 92.8594 14.3984 92.0859 14.2344C91.7656 14.1641 91.5703 14.1016 91.5 14.0469C91.4297 13.9844 91.3867 13.8711 91.3711 13.707C91.5508 13.668 91.6758 13.6484 91.7461 13.6484H92.5781L93.0117 13.6367C93.3008 13.6367 93.6211 13.668 93.9727 13.7305C94.6914 13.7773 95.4297 13.8008 96.1875 13.8008C96.4062 13.8008 96.7188 13.7891 97.125 13.7656C98.2031 13.7031 98.9766 13.6719 99.4453 13.6719C100.391 13.6719 101.281 13.7656 102.117 13.9531C102.961 14.1406 103.828 14.4883 104.719 14.9961C105.273 15.3164 105.84 15.8242 106.418 16.5195C107.004 17.207 107.445 17.9609 107.742 18.7812C108.047 19.5938 108.199 20.5117 108.199 21.5352C108.199 22.4492 108.031 23.3555 107.695 24.2539C107.367 25.1523 106.906 25.9336 106.312 26.5977C105.719 27.2539 105.117 27.75 104.508 28.0859C103.898 28.4141 102.969 28.6992 101.719 28.9414C101.203 29.0352 100.277 29.082 98.9414 29.082C98.0586 29.082 97.3398 29.0547 96.7852 29C96.5664 28.9688 96.332 28.9531 96.082 28.9531C96.043 28.9531 96 28.957 95.9531 28.9648L91.1719 29.0469L91.1484 28.9531C91.1328 28.9141 91.125 28.8711 91.125 28.8242L91.1484 28.6484ZM97.1133 28.1914C97.707 28.3945 98.3086 28.4961 98.918 28.4961C99.707 28.4961 100.48 28.375 101.238 28.1328C101.996 27.8828 102.664 27.5352 103.242 27.0898C103.828 26.6367 104.309 26.1289 104.684 25.5664C105.059 24.9961 105.324 24.4844 105.48 24.0312C105.699 23.3672 105.809 22.5039 105.809 21.4414C105.809 20.4258 105.594 19.3945 105.164 18.3477C104.867 17.6211 104.344 16.9258 103.594 16.2617C102.852 15.5977 101.973 15.1133 100.957 14.8086C99.9414 14.4961 98.8438 14.3398 97.6641 14.3398C96.8516 14.3398 96.25 14.4297 95.8594 14.6094C95.8125 14.6562 95.7656 14.7109 95.7188 14.7734C95.6719 14.9688 95.6484 15.1484 95.6484 15.3125C95.6484 15.4141 95.6523 15.5352 95.6602 15.6758C95.6836 16.582 95.6953 17.3086 95.6953 17.8555L95.6836 20.5156C95.6836 24.4219 95.7539 26.5977 95.8945 27.043C96.043 27.4805 96.4492 27.8633 97.1133 28.1914ZM118.664 22.6953L113.965 22.7305H113.074C112.715 22.7305 112.348 22.7461 111.973 22.7773C111.902 23.0117 111.867 23.1719 111.867 23.2578L111.879 23.375V23.4922L111.867 24.0664C111.867 24.543 112.016 25.1289 112.312 25.8242C112.617 26.5117 113.047 27.0391 113.602 27.4062C114.164 27.7656 114.863 27.957 115.699 27.9805C116.145 27.957 116.5 27.9023 116.766 27.8164C117.031 27.7305 117.406 27.5312 117.891 27.2188L118.734 26.5273L118.805 26.9961C118.805 27.0508 118.801 27.1094 118.793 27.1719C118.441 27.6172 117.996 28.0078 117.457 28.3438C116.918 28.6797 116.371 28.9258 115.816 29.082C115.551 29.1523 115.113 29.1875 114.504 29.1875C113.949 29.1875 113.402 29.0742 112.863 28.8477C112.066 28.5039 111.438 27.9531 110.977 27.1953C110.523 26.4297 110.297 25.5039 110.297 24.418C110.297 24.0742 110.359 23.6328 110.484 23.0938C110.617 22.5547 110.852 21.9805 111.188 21.3711C111.414 20.957 111.691 20.6172 112.02 20.3516C112.488 19.9766 112.898 19.7148 113.25 19.5664C113.758 19.3555 114.348 19.25 115.02 19.25C115.746 19.25 116.34 19.3828 116.801 19.6484C117.426 20 117.891 20.4531 118.195 21.0078C118.508 21.5625 118.664 22.0703 118.664 22.5312V22.6953ZM112.125 22.2734H112.676C113.074 22.2734 114.262 22.2109 116.238 22.0859C116.551 22.0703 116.742 22.0391 116.812 21.9922C116.953 21.8438 117.023 21.7109 117.023 21.5938C117.023 21.3516 116.945 21.0781 116.789 20.7734C116.633 20.4609 116.391 20.2227 116.062 20.0586C115.742 19.8867 115.367 19.8008 114.938 19.8008C114.031 19.8008 113.305 20.1406 112.758 20.8203C112.336 21.3359 112.125 21.8203 112.125 22.2734ZM120.246 24.1719C120.246 23.6406 120.355 23.0742 120.574 22.4727C120.801 21.8633 121.141 21.3203 121.594 20.8438C122.047 20.3594 122.527 20 123.035 19.7656C123.746 19.4375 124.613 19.2734 125.637 19.2734C127.098 19.2734 128.316 19.7734 129.293 20.7734C130.277 21.7734 130.77 22.9766 130.77 24.3828C130.77 25.6328 130.254 26.75 129.223 27.7344C128.199 28.7109 126.902 29.1992 125.332 29.1992C124.363 29.1992 123.449 28.9453 122.59 28.4375C121.949 28.0547 121.398 27.4883 120.938 26.7383C120.477 25.9883 120.246 25.1328 120.246 24.1719ZM125.426 28.7422C126.02 28.7422 126.59 28.582 127.137 28.2617C127.691 27.9414 128.133 27.4297 128.461 26.7266C128.789 26.0156 128.953 25.1953 128.953 24.2656C128.953 23.6562 128.824 22.9492 128.566 22.1445C128.316 21.3398 127.926 20.7383 127.395 20.3398C126.871 19.9336 126.254 19.7305 125.543 19.7305C125.027 19.7305 124.5 19.8516 123.961 20.0938C123.43 20.3359 122.977 20.8008 122.602 21.4883C122.234 22.1758 122.051 23.1523 122.051 24.418C122.051 25.8398 122.371 26.918 123.012 27.6523C123.66 28.3789 124.465 28.7422 125.426 28.7422ZM141.012 26.7383L141.023 27.5C140.414 28.1484 139.812 28.6016 139.219 28.8594C138.625 29.1172 137.926 29.2461 137.121 29.2461C136.246 29.2461 135.457 29.0195 134.754 28.5664C134.051 28.1055 133.508 27.457 133.125 26.6211C132.75 25.7852 132.562 24.9648 132.562 24.1602C132.562 23.2773 132.789 22.4453 133.242 21.6641C133.703 20.875 134.309 20.2891 135.059 19.9062C135.816 19.5156 136.766 19.3203 137.906 19.3203C139 19.3203 139.832 19.5078 140.402 19.8828C140.723 20.1016 140.883 20.3828 140.883 20.7266C140.883 20.9766 140.801 21.1836 140.637 21.3477C140.473 21.5117 140.262 21.5938 140.004 21.5938C139.613 21.5938 139.184 21.3516 138.715 20.8672C138.426 20.5703 138.164 20.3672 137.93 20.2578C137.695 20.1406 137.434 20.082 137.145 20.082C136.449 20.082 135.871 20.3672 135.41 20.9375C134.77 21.75 134.449 22.7695 134.449 23.9961C134.449 25.2617 134.777 26.2695 135.434 27.0195C136.09 27.7695 136.855 28.1445 137.73 28.1445C138.34 28.1445 138.879 28.0469 139.348 27.8516C139.824 27.6484 140.379 27.2773 141.012 26.7383ZM142.266 14.3633V14.1055C142.484 14.0352 142.727 13.9609 142.992 13.8828C143.383 13.7578 143.961 13.5664 144.727 13.3086H145.277C145.285 13.6836 145.289 13.8984 145.289 13.9531C145.289 20.3672 145.27 24.1914 145.23 25.4258C145.207 26.1523 145.195 26.5391 145.195 26.5859C145.195 27.4609 145.23 27.9492 145.301 28.0508C145.395 28.1914 145.68 28.2891 146.156 28.3438C146.641 28.3984 146.926 28.4531 147.012 28.5078C147.074 28.5391 147.105 28.5938 147.105 28.6719C147.105 28.7578 147.086 28.8203 147.047 28.8594C147.016 28.8906 146.953 28.9062 146.859 28.9062C146.805 28.9062 146.395 28.8945 145.629 28.8711L144.094 28.8242L142.125 28.9062C142 28.9141 141.906 28.8906 141.844 28.8359C141.797 28.7969 141.773 28.7422 141.773 28.6719C141.773 28.5938 141.797 28.5391 141.844 28.5078C141.898 28.4688 142.18 28.4062 142.688 28.3203C143.203 28.2344 143.496 28.1641 143.566 28.1094C143.645 28.0469 143.695 27.9141 143.719 27.7109C143.75 27.4297 143.766 26.6367 143.766 25.332L143.754 22.6367L143.789 19.8477L143.777 17.0586L143.812 15.6875C143.812 15.4141 143.77 15.2188 143.684 15.1016C143.598 14.9766 143.414 14.8555 143.133 14.7383C142.711 14.5664 142.422 14.4414 142.266 14.3633ZM148.828 14.4805C148.828 14.2227 148.926 14 149.121 13.8125C149.324 13.625 149.566 13.5312 149.848 13.5312C150.137 13.5312 150.391 13.6367 150.609 13.8477C150.828 14.0586 150.938 14.2852 150.938 14.5273C150.938 14.7695 150.828 15 150.609 15.2188C150.391 15.4297 150.137 15.5352 149.848 15.5352C149.559 15.5352 149.316 15.4375 149.121 15.2422C148.926 15.0469 148.828 14.793 148.828 14.4805ZM147.844 20.5508L147.855 20.2109C148.363 20.0625 148.637 19.9766 148.676 19.9531C148.957 19.8281 149.25 19.6367 149.555 19.3789C149.867 19.1211 150.129 18.832 150.34 18.5117C150.434 18.4961 150.508 18.4883 150.562 18.4883L150.703 18.5C150.734 18.875 150.75 19.1484 150.75 19.3203C150.75 19.3594 150.742 19.5352 150.727 19.8477V20.4688L150.738 23.8438L150.703 27.418C150.695 27.707 150.742 27.9102 150.844 28.0273C150.945 28.1367 151.246 28.2617 151.746 28.4023C152.059 28.4883 152.293 28.5625 152.449 28.625C152.473 28.6797 152.484 28.7266 152.484 28.7656C152.484 28.8125 152.465 28.8711 152.426 28.9414C152.121 28.9336 151.73 28.9141 151.254 28.8828C150.605 28.8281 150.176 28.8008 149.965 28.8008C149.863 28.8008 149.238 28.8203 148.09 28.8594C147.855 28.8672 147.629 28.8867 147.41 28.918C147.371 28.918 147.309 28.9062 147.223 28.8828C147.184 28.8281 147.164 28.7812 147.164 28.7422C147.164 28.6328 147.238 28.5469 147.387 28.4844C147.418 28.4688 147.816 28.3789 148.582 28.2148C148.832 28.168 148.996 28.0898 149.074 27.9805C149.207 27.8164 149.273 27.5547 149.273 27.1953C149.289 26.5938 149.297 24.9453 149.297 22.25C149.297 21.7109 149.273 21.375 149.227 21.2422C149.188 21.1484 149.082 21.043 148.91 20.9258C148.746 20.8008 148.391 20.6758 147.844 20.5508ZM161.227 20.375L161.238 20.0352L161.227 18.6641L161.238 16.0742C161.238 15.3555 161.16 14.8984 161.004 14.7031C160.848 14.5078 160.391 14.3086 159.633 14.1055C159.578 14.0898 159.492 14.0664 159.375 14.0352V13.9062C159.375 13.8281 159.383 13.7422 159.398 13.6484C160.461 13.5391 161.375 13.3555 162.141 13.0977L162.738 13.0859C162.77 13.6172 162.785 14.2109 162.785 14.8672L162.738 19.3789L162.82 24.4648L162.785 27.1719C162.785 27.7266 162.824 28.0391 162.902 28.1094C163.059 28.2656 163.402 28.3477 163.934 28.3555C164.043 28.3555 164.191 28.3633 164.379 28.3789V28.5898C164.379 28.6445 164.375 28.7031 164.367 28.7656C164.125 28.8203 163.875 28.8711 163.617 28.918L161.918 29.2461C161.668 29.293 161.469 29.3164 161.32 29.3164V28.1914C161.188 28.2305 160.98 28.3086 160.699 28.4258C159.48 28.9414 158.359 29.1992 157.336 29.1992C156.719 29.1992 156.09 29 155.449 28.6016C154.809 28.1953 154.316 27.6328 153.973 26.9141C153.629 26.1953 153.457 25.4609 153.457 24.7109C153.457 24.0391 153.57 23.3984 153.797 22.7891C154.023 22.1719 154.32 21.6602 154.688 21.2539C154.922 20.9883 155.254 20.7266 155.684 20.4688C156.113 20.2031 156.469 20.0352 156.75 19.9648C157.445 19.7852 157.91 19.6953 158.145 19.6953C159.199 19.6953 160.066 19.8516 160.746 20.1641C160.957 20.2656 161.117 20.3359 161.227 20.375ZM161.238 27.6172C161.27 27.0938 161.285 26.0156 161.285 24.3828C161.285 23 161.219 22.1289 161.086 21.7695C160.961 21.4023 160.641 21.0586 160.125 20.7383C159.609 20.4102 159.031 20.2461 158.391 20.2461C157.492 20.2461 156.73 20.5938 156.105 21.2891C155.48 21.9844 155.168 23.0117 155.168 24.3711C155.168 25.5664 155.504 26.5195 156.176 27.2305C156.855 27.9414 157.699 28.2969 158.707 28.2969C159.285 28.2969 159.812 28.2188 160.289 28.0625C160.766 27.9062 161.082 27.7578 161.238 27.6172ZM173.953 22.6953L169.254 22.7305H168.363C168.004 22.7305 167.637 22.7461 167.262 22.7773C167.191 23.0117 167.156 23.1719 167.156 23.2578L167.168 23.375V23.4922L167.156 24.0664C167.156 24.543 167.305 25.1289 167.602 25.8242C167.906 26.5117 168.336 27.0391 168.891 27.4062C169.453 27.7656 170.152 27.957 170.988 27.9805C171.434 27.957 171.789 27.9023 172.055 27.8164C172.32 27.7305 172.695 27.5312 173.18 27.2188L174.023 26.5273L174.094 26.9961C174.094 27.0508 174.09 27.1094 174.082 27.1719C173.73 27.6172 173.285 28.0078 172.746 28.3438C172.207 28.6797 171.66 28.9258 171.105 29.082C170.84 29.1523 170.402 29.1875 169.793 29.1875C169.238 29.1875 168.691 29.0742 168.152 28.8477C167.355 28.5039 166.727 27.9531 166.266 27.1953C165.812 26.4297 165.586 25.5039 165.586 24.418C165.586 24.0742 165.648 23.6328 165.773 23.0938C165.906 22.5547 166.141 21.9805 166.477 21.3711C166.703 20.957 166.98 20.6172 167.309 20.3516C167.777 19.9766 168.188 19.7148 168.539 19.5664C169.047 19.3555 169.637 19.25 170.309 19.25C171.035 19.25 171.629 19.3828 172.09 19.6484C172.715 20 173.18 20.4531 173.484 21.0078C173.797 21.5625 173.953 22.0703 173.953 22.5312V22.6953ZM167.414 22.2734H167.965C168.363 22.2734 169.551 22.2109 171.527 22.0859C171.84 22.0703 172.031 22.0391 172.102 21.9922C172.242 21.8438 172.312 21.7109 172.312 21.5938C172.312 21.3516 172.234 21.0781 172.078 20.7734C171.922 20.4609 171.68 20.2227 171.352 20.0586C171.031 19.8867 170.656 19.8008 170.227 19.8008C169.32 19.8008 168.594 20.1406 168.047 20.8203C167.625 21.3359 167.414 21.8203 167.414 22.2734ZM176.379 25.9062C176.668 26.6484 176.887 27.1289 177.035 27.3477C177.332 27.793 177.688 28.1406 178.102 28.3906C178.516 28.6328 178.965 28.7539 179.449 28.7539C179.895 28.7539 180.336 28.5625 180.773 28.1797C181.086 27.8906 181.242 27.5547 181.242 27.1719C181.242 26.6641 181.059 26.1953 180.691 25.7656C180.324 25.3438 179.625 24.9414 178.594 24.5586C177.57 24.168 176.883 23.7539 176.531 23.3164C176.18 22.8789 176.004 22.3789 176.004 21.8164C176.004 21.2852 176.148 20.8164 176.438 20.4102C176.727 20.0039 177.125 19.6992 177.633 19.4961C178.141 19.2852 178.609 19.1797 179.039 19.1797C179.594 19.1797 180.09 19.2227 180.527 19.3086C180.973 19.3945 181.355 19.5273 181.676 19.707C181.738 20.1055 181.789 20.6914 181.828 21.4648L181.852 21.8398C181.75 21.8477 181.664 21.8516 181.594 21.8516H181.43C181.195 21.2031 180.836 20.6914 180.352 20.3164C179.875 19.9336 179.402 19.7422 178.934 19.7422C178.465 19.7422 178.086 19.8867 177.797 20.1758C177.508 20.457 177.363 20.8281 177.363 21.2891C177.363 21.6406 177.48 21.9531 177.715 22.2266C177.949 22.5 178.496 22.8125 179.355 23.1641C180.223 23.5156 180.852 23.8438 181.242 24.1484C181.641 24.4453 181.934 24.8086 182.121 25.2383C182.309 25.668 182.402 26.0781 182.402 26.4688C182.402 27.0078 182.223 27.5117 181.863 27.9805C181.512 28.4492 181.066 28.7773 180.527 28.9648C179.996 29.1602 179.52 29.2578 179.098 29.2578C178.105 29.2578 177.191 29.0742 176.355 28.707C176.277 28.6445 176.234 28.5273 176.227 28.3555C176.227 28.2852 176.219 28.1719 176.203 28.0156C176.078 26.9609 176.016 26.3359 176.016 26.1406C176.016 26.0469 176.035 25.9844 176.074 25.9531C176.113 25.9219 176.215 25.9062 176.379 25.9062Z" fill="#0F2646"/>
</svg>
