<svg width="23" height="23" viewBox="0 0 23 23" fill="none" xmlns="http://www.w3.org/2000/svg">
<path d="M22.2201 8.44329C22.1374 8.19601 21.9231 8.01585 21.6655 7.9762L14.8235 6.93075L11.7579 0.399958C11.6431 0.15581 11.3976 0 11.1281 0C10.8586 0 10.6134 0.15581 10.4983 0.399958L7.43271 6.93075L0.590724 7.97655C0.333028 8.01585 0.119151 8.19636 0.0360343 8.44363C-0.0467344 8.69056 0.015516 8.96323 0.197746 9.14999L5.16874 14.2475L3.99398 21.4482C3.95086 21.7111 4.06179 21.9758 4.27984 22.1288C4.39948 22.2133 4.53963 22.2561 4.68013 22.2561C4.79558 22.2561 4.91174 22.2269 5.01676 22.1691L11.1277 18.789L17.2387 22.1691C17.3437 22.2269 17.4599 22.2561 17.5754 22.2561C17.7159 22.2561 17.8564 22.2133 17.9756 22.1288C18.1937 21.9758 18.3046 21.7111 18.2615 21.4482L17.0867 14.2475L22.0577 9.14999C22.2403 8.96288 22.3029 8.69022 22.2201 8.44329Z" fill="#F5BA08"/>
</svg>
