<svg width="56" height="56" viewBox="0 0 56 56" fill="none" xmlns="http://www.w3.org/2000/svg">
<rect width="56" height="56" rx="4" fill="#0B2D50" fill-opacity="0.1"/>
<path d="M40.4 18.9138H37.96C37.7467 18.9138 37.5667 18.9873 37.42 19.1343C37.2733 19.2813 37.2 19.4616 37.2 19.6754V29.5366C37.2 30.5789 36.8267 31.4741 36.08 32.2224C35.3333 32.9707 34.4267 33.3448 33.36 33.3448H17.16C16.9467 33.3448 16.7667 33.4183 16.62 33.5653C16.4733 33.7123 16.4 33.8927 16.4 34.1065V36.5517C16.4 37.006 16.5533 37.3869 16.86 37.6942C17.1667 38.0015 17.5467 38.1552 18 38.1552H34.6C35.2667 38.1552 35.84 38.3957 36.32 38.8767L40.72 43.2862C40.8267 43.3931 40.9533 43.4599 41.1 43.4866C41.2467 43.5134 41.3933 43.5 41.54 43.4466C41.6867 43.3931 41.8 43.2996 41.88 43.166C41.96 43.0323 42 42.8853 42 42.725V20.5172C42 20.0629 41.8467 19.6821 41.54 19.3748C41.2333 19.0675 40.8533 18.9138 40.4 18.9138ZM34 28.5345V14.1034C34 13.6491 33.8467 13.2683 33.54 12.961C33.2333 12.6537 32.8533 12.5 32.4 12.5H11.6C11.1467 12.5 10.7667 12.6537 10.46 12.961C10.1533 13.2683 10 13.6491 10 14.1034V34.7078C10 34.8681 10.04 35.0151 10.12 35.1487C10.2 35.2823 10.3133 35.3759 10.46 35.4293C10.6067 35.4828 10.7533 35.4961 10.9 35.4694C11.0467 35.4427 11.1733 35.3759 11.28 35.269L15.68 30.8595C16.16 30.3784 16.7333 30.1379 17.4 30.1379H32.4C32.8533 30.1379 33.2333 29.9776 33.54 29.6569C33.8467 29.3362 34 28.9621 34 28.5345Z" fill="#0B2D50"/>
</svg>
