<svg width="18" height="18" viewBox="0 0 18 18" fill="none" xmlns="http://www.w3.org/2000/svg">
<path fill-rule="evenodd" clip-rule="evenodd" d="M16.1919 5.8837C17.1526 6.57567 17.8049 7.648 17.8049 8.90244C17.8049 10.1569 17.1526 11.23 16.1919 11.9212C16.3862 13.0882 16.0835 14.3151 15.1989 15.1989C14.3127 16.0851 13.0866 16.3797 11.9244 16.1903C11.2357 17.1542 10.1536 17.8049 8.90244 17.8049C7.648 17.8049 6.57324 17.1518 5.88289 16.1895C4.7191 16.3797 3.49218 16.0859 2.60518 15.1989C1.71898 14.3127 1.42439 13.0858 1.62024 11.9212C0.660399 11.2308 0 10.1577 0 8.90244C0 7.64719 0.660399 6.57324 1.62024 5.8837C1.42439 4.7191 1.71898 3.49218 2.60599 2.60599C3.49057 1.7206 4.71829 1.41872 5.88937 1.61296C6.57567 0.650687 7.65043 0 8.90244 0C10.1528 0 11.2333 0.649878 11.9228 1.61296C13.0898 1.41872 14.3151 1.72222 15.1989 2.60599C16.0835 3.48976 16.387 4.71667 16.1919 5.8837ZM12.6099 5.81572C12.6964 5.87746 12.7699 5.95565 12.8262 6.0458C12.8825 6.13596 12.9205 6.23632 12.938 6.34116C12.9555 6.446 12.9522 6.55326 12.9283 6.65682C12.9043 6.76037 12.8602 6.8582 12.7985 6.94471L8.75191 12.6099C8.6836 12.7056 8.59527 12.7852 8.49306 12.8433C8.39085 12.9014 8.27721 12.9365 8.16006 12.9462C8.0429 12.9559 7.92504 12.94 7.81467 12.8995C7.70429 12.859 7.60406 12.795 7.52094 12.7119L5.093 10.2839C4.94558 10.1313 4.86401 9.92686 4.86585 9.71466C4.86769 9.50246 4.95281 9.29948 5.10286 9.14943C5.25292 8.99937 5.4559 8.91426 5.6681 8.91241C5.8803 8.91057 6.08473 8.99214 6.23737 9.13957L7.98953 10.8917L11.4809 6.00348C11.6057 5.82888 11.7948 5.711 12.0065 5.67579C12.2182 5.64058 12.4353 5.69091 12.6099 5.81572Z" fill="#4986EA"/>
</svg>
